<svg xmlns="http://www.w3.org/2000/svg" viewBox="-51.0 -51.0 102.0 102.0">
    <path d="M 39.000,0.000 L 38.976,1.361 L 38.905,2.721 L 38.786,4.077 L 38.620,5.428 L 38.408,6.772 L 38.148,8.109 L 37.842,9.435 L 37.489,10.750 L 37.091,12.052 L 36.648,13.339 L 36.160,14.610 L 35.628,15.863 L 35.053,17.096 L 34.435,18.309 L 33.775,19.500 L 33.074,20.667 L 32.332,21.809 L 31.552,22.924 L 30.732,24.011 L 29.876,25.069 L 28.983,26.096 L 28.054,27.092 L 27.092,28.054 L 26.096,28.983 L 25.069,29.876 L 24.011,30.732 L 22.924,31.552 L 21.809,32.332 L 20.667,33.074 L 19.500,33.775 L 18.309,34.435 L 17.096,35.053 L 15.863,35.628 L 14.610,36.160 L 13.339,36.648 L 12.052,37.091 L 10.750,37.489 L 9.435,37.842 L 8.109,38.148 L 6.772,38.408 L 5.428,38.620 L 4.077,38.786 L 2.721,38.905 L 1.361,38.976 L 0.000,39.000 L -1.361,38.976 L -2.721,38.905 L -4.077,38.786 L -5.428,38.620 L -6.772,38.408 L -8.109,38.148 L -9.435,37.842 L -10.750,37.489 L -12.052,37.091 L -13.339,36.648 L -14.610,36.160 L -15.863,35.628 L -17.096,35.053 L -18.309,34.435 L -19.500,33.775 L -20.667,33.074 L -21.809,32.332 L -22.924,31.552 L -24.011,30.732 L -25.069,29.876 L -26.096,28.983 L -27.092,28.054 L -28.054,27.092 L -28.983,26.096 L -29.876,25.069 L -30.732,24.011 L -31.552,22.924 L -32.332,21.809 L -33.074,20.667 L -33.775,19.500 L -34.435,18.309 L -35.053,17.096 L -35.628,15.863 L -36.160,14.610 L -36.648,13.339 L -37.091,12.052 L -37.489,10.750 L -37.842,9.435 L -38.148,8.109 L -38.408,6.772 L -38.620,5.428 L -38.786,4.077 L -38.905,2.721 L -38.976,1.361 L -39.000,0.000 L -38.976,-1.361 L -38.905,-2.721 L -38.786,-4.077 L -38.620,-5.428 L -38.408,-6.772 L -38.148,-8.109 L -37.842,-9.435 L -37.489,-10.750 L -37.091,-12.052 L -36.648,-13.339 L -36.160,-14.610 L -35.628,-15.863 L -35.053,-17.096 L -34.435,-18.309 L -33.775,-19.500 L -33.074,-20.667 L -32.332,-21.809 L -31.552,-22.924 L -30.732,-24.011 L -29.876,-25.069 L -28.983,-26.096 L -28.054,-27.092 L -27.092,-28.054 L -26.096,-28.983 L -25.069,-29.876 L -24.011,-30.732 L -22.924,-31.552 L -21.809,-32.332 L -20.667,-33.074 L -19.500,-33.775 L -18.309,-34.435 L -17.096,-35.053 L -15.863,-35.628 L -14.610,-36.160 L -13.339,-36.648 L -12.052,-37.091 L -10.750,-37.489 L -9.435,-37.842 L -8.109,-38.148 L -6.772,-38.408 L -5.428,-38.620 L -4.077,-38.786 L -2.721,-38.905 L -1.361,-38.976 L -0.000,-39.000 L 1.361,-38.976 L 2.721,-38.905 L 4.077,-38.786 L 5.428,-38.620 L 6.772,-38.408 L 8.109,-38.148 L 9.435,-37.842 L 10.750,-37.489 L 12.052,-37.091 L 13.339,-36.648 L 14.610,-36.160 L 15.863,-35.628 L 17.096,-35.053 L 18.309,-34.435 L 19.500,-33.775 L 20.667,-33.074 L 21.809,-32.332 L 22.924,-31.552 L 24.011,-30.732 L 25.069,-29.876 L 26.096,-28.983 L 27.092,-28.054 L 28.054,-27.092 L 28.983,-26.096 L 29.876,-25.069 L 30.732,-24.011 L 31.552,-22.924 L 32.332,-21.809 L 33.074,-20.667 L 33.775,-19.500 L 34.435,-18.309 L 35.053,-17.096 L 35.628,-15.863 L 36.160,-14.610 L 36.648,-13.339 L 37.091,-12.052 L 37.489,-10.750 L 37.842,-9.435 L 38.148,-8.109 L 38.408,-6.772 L 38.620,-5.428 L 38.786,-4.077 L 38.905,-2.721 L 38.976,-1.361 L 39.000,-0.000 Z" fill="none" stroke="black" stroke-width="0.25"/>
    <path d="M 32.000,0.000 L 31.981,1.117 L 31.922,2.232 L 31.825,3.345 L 31.689,4.454 L 31.514,5.557 L 31.301,6.653 L 31.049,7.742 L 30.760,8.820 L 30.434,9.889 L 30.070,10.945 L 29.670,11.987 L 29.233,13.016 L 28.761,14.028 L 28.254,15.023 L 27.713,16.000 L 27.138,16.957 L 26.529,17.894 L 25.889,18.809 L 25.216,19.701 L 24.513,20.569 L 23.781,21.412 L 23.019,22.229 L 22.229,23.019 L 21.412,23.781 L 20.569,24.513 L 19.701,25.216 L 18.809,25.889 L 17.894,26.529 L 16.957,27.138 L 16.000,27.713 L 15.023,28.254 L 14.028,28.761 L 13.016,29.233 L 11.987,29.670 L 10.945,30.070 L 9.889,30.434 L 8.820,30.760 L 7.742,31.049 L 6.653,31.301 L 5.557,31.514 L 4.454,31.689 L 3.345,31.825 L 2.232,31.922 L 1.117,31.981 L 0.000,32.000 L -1.117,31.981 L -2.232,31.922 L -3.345,31.825 L -4.454,31.689 L -5.557,31.514 L -6.653,31.301 L -7.742,31.049 L -8.820,30.760 L -9.889,30.434 L -10.945,30.070 L -11.987,29.670 L -13.016,29.233 L -14.028,28.761 L -15.023,28.254 L -16.000,27.713 L -16.957,27.138 L -17.894,26.529 L -18.809,25.889 L -19.701,25.216 L -20.569,24.513 L -21.412,23.781 L -22.229,23.019 L -23.019,22.229 L -23.781,21.412 L -24.513,20.569 L -25.216,19.701 L -25.889,18.809 L -26.529,17.894 L -27.138,16.957 L -27.713,16.000 L -28.254,15.023 L -28.761,14.028 L -29.233,13.016 L -29.670,11.987 L -30.070,10.945 L -30.434,9.889 L -30.760,8.820 L -31.049,7.742 L -31.301,6.653 L -31.514,5.557 L -31.689,4.454 L -31.825,3.345 L -31.922,2.232 L -31.981,1.117 L -32.000,0.000 L -31.981,-1.117 L -31.922,-2.232 L -31.825,-3.345 L -31.689,-4.454 L -31.514,-5.557 L -31.301,-6.653 L -31.049,-7.742 L -30.760,-8.820 L -30.434,-9.889 L -30.070,-10.945 L -29.670,-11.987 L -29.233,-13.016 L -28.761,-14.028 L -28.254,-15.023 L -27.713,-16.000 L -27.138,-16.957 L -26.529,-17.894 L -25.889,-18.809 L -25.216,-19.701 L -24.513,-20.569 L -23.781,-21.412 L -23.019,-22.229 L -22.229,-23.019 L -21.412,-23.781 L -20.569,-24.513 L -19.701,-25.216 L -18.809,-25.889 L -17.894,-26.529 L -16.957,-27.138 L -16.000,-27.713 L -15.023,-28.254 L -14.028,-28.761 L -13.016,-29.233 L -11.987,-29.670 L -10.945,-30.070 L -9.889,-30.434 L -8.820,-30.760 L -7.742,-31.049 L -6.653,-31.301 L -5.557,-31.514 L -4.454,-31.689 L -3.345,-31.825 L -2.232,-31.922 L -1.117,-31.981 L -0.000,-32.000 L 1.117,-31.981 L 2.232,-31.922 L 3.345,-31.825 L 4.454,-31.689 L 5.557,-31.514 L 6.653,-31.301 L 7.742,-31.049 L 8.820,-30.760 L 9.889,-30.434 L 10.945,-30.070 L 11.987,-29.670 L 13.016,-29.233 L 14.028,-28.761 L 15.023,-28.254 L 16.000,-27.713 L 16.957,-27.138 L 17.894,-26.529 L 18.809,-25.889 L 19.701,-25.216 L 20.569,-24.513 L 21.412,-23.781 L 22.229,-23.019 L 23.019,-22.229 L 23.781,-21.412 L 24.513,-20.569 L 25.216,-19.701 L 25.889,-18.809 L 26.529,-17.894 L 27.138,-16.957 L 27.713,-16.000 L 28.254,-15.023 L 28.761,-14.028 L 29.233,-13.016 L 29.670,-11.987 L 30.070,-10.945 L 30.434,-9.889 L 30.760,-8.820 L 31.049,-7.742 L 31.301,-6.653 L 31.514,-5.557 L 31.689,-4.454 L 31.825,-3.345 L 31.922,-2.232 L 31.981,-1.117 L 32.000,-0.000 Z" fill="none" stroke="sienna" stroke-width="0.25"/>
</svg>
