<svg xmlns="http://www.w3.org/2000/svg" viewBox="-22.0 -22.0 44.0 44.0">
    <path d="M 12.000,0.000 L 11.993,0.419 L 11.971,0.837 L 11.934,1.254 L 11.883,1.670 L 11.818,2.084 L 11.738,2.495 L 11.644,2.903 L 11.535,3.308 L 11.413,3.708 L 11.276,4.104 L 11.126,4.495 L 10.963,4.881 L 10.786,5.260 L 10.595,5.634 L 10.392,6.000 L 10.177,6.359 L 9.948,6.710 L 9.708,7.053 L 9.456,7.388 L 9.193,7.713 L 8.918,8.030 L 8.632,8.336 L 8.336,8.632 L 8.030,8.918 L 7.713,9.193 L 7.388,9.456 L 7.053,9.708 L 6.710,9.948 L 6.359,10.177 L 6.000,10.392 L 5.634,10.595 L 5.260,10.786 L 4.881,10.963 L 4.495,11.126 L 4.104,11.276 L 3.708,11.413 L 3.308,11.535 L 2.903,11.644 L 2.495,11.738 L 2.084,11.818 L 1.670,11.883 L 1.254,11.934 L 0.837,11.971 L 0.419,11.993 L 0.000,12.000 L -0.419,11.993 L -0.837,11.971 L -1.254,11.934 L -1.670,11.883 L -2.084,11.818 L -2.495,11.738 L -2.903,11.644 L -3.308,11.535 L -3.708,11.413 L -4.104,11.276 L -4.495,11.126 L -4.881,10.963 L -5.260,10.786 L -5.634,10.595 L -6.000,10.392 L -6.359,10.177 L -6.710,9.948 L -7.053,9.708 L -7.388,9.456 L -7.713,9.193 L -8.030,8.918 L -8.336,8.632 L -8.632,8.336 L -8.918,8.030 L -9.193,7.713 L -9.456,7.388 L -9.708,7.053 L -9.948,6.710 L -10.177,6.359 L -10.392,6.000 L -10.595,5.634 L -10.786,5.260 L -10.963,4.881 L -11.126,4.495 L -11.276,4.104 L -11.413,3.708 L -11.535,3.308 L -11.644,2.903 L -11.738,2.495 L -11.818,2.084 L -11.883,1.670 L -11.934,1.254 L -11.971,0.837 L -11.993,0.419 L -12.000,0.000 L -11.993,-0.419 L -11.971,-0.837 L -11.934,-1.254 L -11.883,-1.670 L -11.818,-2.084 L -11.738,-2.495 L -11.644,-2.903 L -11.535,-3.308 L -11.413,-3.708 L -11.276,-4.104 L -11.126,-4.495 L -10.963,-4.881 L -10.786,-5.260 L -10.595,-5.634 L -10.392,-6.000 L -10.177,-6.359 L -9.948,-6.710 L -9.708,-7.053 L -9.456,-7.388 L -9.193,-7.713 L -8.918,-8.030 L -8.632,-8.336 L -8.336,-8.632 L -8.030,-8.918 L -7.713,-9.193 L -7.388,-9.456 L -7.053,-9.708 L -6.710,-9.948 L -6.359,-10.177 L -6.000,-10.392 L -5.634,-10.595 L -5.260,-10.786 L -4.881,-10.963 L -4.495,-11.126 L -4.104,-11.276 L -3.708,-11.413 L -3.308,-11.535 L -2.903,-11.644 L -2.495,-11.738 L -2.084,-11.818 L -1.670,-11.883 L -1.254,-11.934 L -0.837,-11.971 L -0.419,-11.993 L -0.000,-12.000 L 0.419,-11.993 L 0.837,-11.971 L 1.254,-11.934 L 1.670,-11.883 L 2.084,-11.818 L 2.495,-11.738 L 2.903,-11.644 L 3.308,-11.535 L 3.708,-11.413 L 4.104,-11.276 L 4.495,-11.126 L 4.881,-10.963 L 5.260,-10.786 L 5.634,-10.595 L 6.000,-10.392 L 6.359,-10.177 L 6.710,-9.948 L 7.053,-9.708 L 7.388,-9.456 L 7.713,-9.193 L 8.030,-8.918 L 8.336,-8.632 L 8.632,-8.336 L 8.918,-8.030 L 9.193,-7.713 L 9.456,-7.388 L 9.708,-7.053 L 9.948,-6.710 L 10.177,-6.359 L 10.392,-6.000 L 10.595,-5.634 L 10.786,-5.260 L 10.963,-4.881 L 11.126,-4.495 L 11.276,-4.104 L 11.413,-3.708 L 11.535,-3.308 L 11.644,-2.903 L 11.738,-2.495 L 11.818,-2.084 L 11.883,-1.670 L 11.934,-1.254 L 11.971,-0.837 L 11.993,-0.419 L 12.000,-0.000 Z" fill="none" stroke="black" stroke-width="0.25"/>
    <path d="M 8.000,0.000 L 7.992,0.349 L 7.970,0.697 L 7.932,1.044 L 7.878,1.389 L 7.810,1.732 L 7.727,2.071 L 7.630,2.406 L 7.518,2.736 L 7.391,3.061 L 7.250,3.381 L 7.096,3.694 L 6.928,4.000 L 6.747,4.298 L 6.553,4.589 L 6.347,4.870 L 6.128,5.142 L 5.898,5.405 L 5.657,5.657 L 5.405,5.898 L 5.142,6.128 L 4.870,6.347 L 4.589,6.553 L 4.298,6.747 L 4.000,6.928 L 3.694,7.096 L 3.381,7.250 L 3.061,7.391 L 2.736,7.518 L 2.406,7.630 L 2.071,7.727 L 1.732,7.810 L 1.389,7.878 L 1.044,7.932 L 0.697,7.970 L 0.349,7.992 L 0.000,8.000 L -0.349,7.992 L -0.697,7.970 L -1.044,7.932 L -1.389,7.878 L -1.732,7.810 L -2.071,7.727 L -2.406,7.630 L -2.736,7.518 L -3.061,7.391 L -3.381,7.250 L -3.694,7.096 L -4.000,6.928 L -4.298,6.747 L -4.589,6.553 L -4.870,6.347 L -5.142,6.128 L -5.405,5.898 L -5.657,5.657 L -5.898,5.405 L -6.128,5.142 L -6.347,4.870 L -6.553,4.589 L -6.747,4.298 L -6.928,4.000 L -7.096,3.694 L -7.250,3.381 L -7.391,3.061 L -7.518,2.736 L -7.630,2.406 L -7.727,2.071 L -7.810,1.732 L -7.878,1.389 L -7.932,1.044 L -7.970,0.697 L -7.992,0.349 L -8.000,0.000 L -7.992,-0.349 L -7.970,-0.697 L -7.932,-1.044 L -7.878,-1.389 L -7.810,-1.732 L -7.727,-2.071 L -7.630,-2.406 L -7.518,-2.736 L -7.391,-3.061 L -7.250,-3.381 L -7.096,-3.694 L -6.928,-4.000 L -6.747,-4.298 L -6.553,-4.589 L -6.347,-4.870 L -6.128,-5.142 L -5.898,-5.405 L -5.657,-5.657 L -5.405,-5.898 L -5.142,-6.128 L -4.870,-6.347 L -4.589,-6.553 L -4.298,-6.747 L -4.000,-6.928 L -3.694,-7.096 L -3.381,-7.250 L -3.061,-7.391 L -2.736,-7.518 L -2.406,-7.630 L -2.071,-7.727 L -1.732,-7.810 L -1.389,-7.878 L -1.044,-7.932 L -0.697,-7.970 L -0.349,-7.992 L -0.000,-8.000 L 0.349,-7.992 L 0.697,-7.970 L 1.044,-7.932 L 1.389,-7.878 L 1.732,-7.810 L 2.071,-7.727 L 2.406,-7.630 L 2.736,-7.518 L 3.061,-7.391 L 3.381,-7.250 L 3.694,-7.096 L 4.000,-6.928 L 4.298,-6.747 L 4.589,-6.553 L 4.870,-6.347 L 5.142,-6.128 L 5.405,-5.898 L 5.657,-5.657 L 5.898,-5.405 L 6.128,-5.142 L 6.347,-4.870 L 6.553,-4.589 L 6.747,-4.298 L 6.928,-4.000 L 7.096,-3.694 L 7.250,-3.381 L 7.391,-3.061 L 7.518,-2.736 L 7.630,-2.406 L 7.727,-2.071 L 7.810,-1.732 L 7.878,-1.389 L 7.932,-1.044 L 7.970,-0.697 L 7.992,-0.349 L 8.000,-0.000 Z" fill="none" stroke="darkgreen" stroke-width="0.25"/>
    <g transform="translate(0,-12.560)">
        <path d="M 1.400,0.000 L 1.397,0.092 L 1.388,0.183 L 1.373,0.273 L 1.352,0.362 L 1.326,0.450 L 1.293,0.536 L 1.256,0.619 L 1.212,0.700 L 1.164,0.778 L 1.111,0.852 L 1.053,0.923 L 0.990,0.990 L 0.923,1.053 L 0.852,1.111 L 0.778,1.164 L 0.700,1.212 L 0.619,1.256 L 0.536,1.293 L 0.450,1.326 L 0.362,1.352 L 0.273,1.373 L 0.183,1.388 L 0.092,1.397 L 0.000,1.400 L -0.092,1.397 L -0.183,1.388 L -0.273,1.373 L -0.362,1.352 L -0.450,1.326 L -0.536,1.293 L -0.619,1.256 L -0.700,1.212 L -0.778,1.164 L -0.852,1.111 L -0.923,1.053 L -0.990,0.990 L -1.053,0.923 L -1.111,0.852 L -1.164,0.778 L -1.212,0.700 L -1.256,0.619 L -1.293,0.536 L -1.326,0.450 L -1.352,0.362 L -1.373,0.273 L -1.388,0.183 L -1.397,0.092 L -1.400,0.000 L -1.397,-0.092 L -1.388,-0.183 L -1.373,-0.273 L -1.352,-0.362 L -1.326,-0.450 L -1.293,-0.536 L -1.256,-0.619 L -1.212,-0.700 L -1.164,-0.778 L -1.111,-0.852 L -1.053,-0.923 L -0.990,-0.990 L -0.923,-1.053 L -0.852,-1.111 L -0.778,-1.164 L -0.700,-1.212 L -0.619,-1.256 L -0.536,-1.293 L -0.450,-1.326 L -0.362,-1.352 L -0.273,-1.373 L -0.183,-1.388 L -0.092,-1.397 L -0.000,-1.400 L 0.092,-1.397 L 0.183,-1.388 L 0.273,-1.373 L 0.362,-1.352 L 0.450,-1.326 L 0.536,-1.293 L 0.619,-1.256 L 0.700,-1.212 L 0.778,-1.164 L 0.852,-1.111 L 0.923,-1.053 L 0.990,-0.990 L 1.053,-0.923 L 1.111,-0.852 L 1.164,-0.778 L 1.212,-0.700 L 1.256,-0.619 L 1.293,-0.536 L 1.326,-0.450 L 1.352,-0.362 L 1.373,-0.273 L 1.388,-0.183 L 1.397,-0.092 L 1.400,-0.000 Z" fill="none" stroke="orange" stroke-width="0.25"/>
    </g>
</svg>
