<svg xmlns="http://www.w3.org/2000/svg" viewBox="-20.0 -18.0 40.0 36.0">
  <path d="M 10.000,6.080 L 9.984,6.331 L 9.935,6.577 L 9.854,6.815 L 9.743,7.040 L 9.603,7.249 L 9.438,7.438 L 9.249,7.603 L 9.040,7.743 L 8.815,7.854 L 8.577,7.935 L 8.331,7.984 L 8.080,8.000 L -8.080,8.000 L -8.331,7.984 L -8.577,7.935 L -8.815,7.854 L -9.040,7.743 L -9.249,7.603 L -9.438,7.438 L -9.603,7.249 L -9.743,7.040 L -9.854,6.815 L -9.935,6.577 L -9.984,6.331 L -10.000,6.080 L -10.000,-6.080 L -9.984,-6.331 L -9.935,-6.577 L -9.854,-6.815 L -9.743,-7.040 L -9.603,-7.249 L -9.438,-7.438 L -9.249,-7.603 L -9.040,-7.743 L -8.815,-7.854 L -8.577,-7.935 L -8.331,-7.984 L -8.080,-8.000 L 8.080,-8.000 L 8.331,-7.984 L 8.577,-7.935 L 8.815,-7.854 L 9.040,-7.743 L 9.249,-7.603 L 9.438,-7.438 L 9.603,-7.249 L 9.743,-7.040 L 9.854,-6.815 L 9.935,-6.577 L 9.984,-6.331 L 10.000,-6.080 Z" fill="none" stroke="black" stroke-width="0.25"/>
  <path d="M 8.000,5.040 L 7.992,5.165 L 7.967,5.288 L 7.927,5.407 L 7.871,5.520 L 7.802,5.624 L 7.719,5.719 L 7.624,5.802 L 7.520,5.871 L 7.407,5.927 L 7.288,5.967 L 7.165,5.992 L 7.040,6.000 L -7.040,6.000 L -7.165,5.992 L -7.288,5.967 L -7.407,5.927 L -7.520,5.871 L -7.624,5.802 L -7.719,5.719 L -7.802,5.624 L -7.871,5.520 L -7.927,5.407 L -7.967,5.288 L -7.992,5.165 L -8.000,5.040 L -8.000,-5.040 L -7.992,-5.165 L -7.967,-5.288 L -7.927,-5.407 L -7.871,-5.520 L -7.802,-5.624 L -7.719,-5.719 L -7.624,-5.802 L -7.520,-5.871 L -7.407,-5.927 L -7.288,-5.967 L -7.165,-5.992 L -7.040,-6.000 L 7.040,-6.000 L 7.165,-5.992 L 7.288,-5.967 L 7.407,-5.927 L 7.520,-5.871 L 7.624,-5.802 L 7.719,-5.719 L 7.802,-5.624 L 7.871,-5.520 L 7.927,-5.407 L 7.967,-5.288 L 7.992,-5.165 L 8.000,-5.040 Z" fill="none" stroke="green" stroke-width="0.25"/>
</svg>
