<svg xmlns="http://www.w3.org/2000/svg" viewBox="-25.0 -25.0 50.0 50.0">
    <path d="M 16.000,0.000 L 15.985,0.698 L 15.939,1.394 L 15.863,2.088 L 15.757,2.778 L 15.621,3.463 L 15.455,4.141 L 15.259,4.811 L 15.035,5.472 L 14.782,6.123 L 14.501,6.762 L 14.192,7.388 L 13.856,8.000 L 13.494,8.597 L 13.106,9.177 L 12.694,9.740 L 12.257,10.285 L 11.796,10.809 L 11.314,11.314 L 10.809,11.796 L 10.285,12.257 L 9.740,12.694 L 9.177,13.106 L 8.597,13.494 L 8.000,13.856 L 7.388,14.192 L 6.762,14.501 L 6.123,14.782 L 5.472,15.035 L 4.811,15.259 L 4.141,15.455 L 3.463,15.621 L 2.778,15.757 L 2.088,15.863 L 1.394,15.939 L 0.698,15.985 L 0.000,16.000 L -0.698,15.985 L -1.394,15.939 L -2.088,15.863 L -2.778,15.757 L -3.463,15.621 L -4.141,15.455 L -4.811,15.259 L -5.472,15.035 L -6.123,14.782 L -6.762,14.501 L -7.388,14.192 L -8.000,13.856 L -8.597,13.494 L -9.177,13.106 L -9.740,12.694 L -10.285,12.257 L -10.809,11.796 L -11.314,11.314 L -11.796,10.809 L -12.257,10.285 L -12.694,9.740 L -13.106,9.177 L -13.494,8.597 L -13.856,8.000 L -14.192,7.388 L -14.501,6.762 L -14.782,6.123 L -15.035,5.472 L -15.259,4.811 L -15.455,4.141 L -15.621,3.463 L -15.757,2.778 L -15.863,2.088 L -15.939,1.394 L -15.985,0.698 L -16.000,0.000 L -15.985,-0.698 L -15.939,-1.394 L -15.863,-2.088 L -15.757,-2.778 L -15.621,-3.463 L -15.455,-4.141 L -15.259,-4.811 L -15.035,-5.472 L -14.782,-6.123 L -14.501,-6.762 L -14.192,-7.388 L -13.856,-8.000 L -13.494,-8.597 L -13.106,-9.177 L -12.694,-9.740 L -12.257,-10.285 L -11.796,-10.809 L -11.314,-11.314 L -10.809,-11.796 L -10.285,-12.257 L -9.740,-12.694 L -9.177,-13.106 L -8.597,-13.494 L -8.000,-13.856 L -7.388,-14.192 L -6.762,-14.501 L -6.123,-14.782 L -5.472,-15.035 L -4.811,-15.259 L -4.141,-15.455 L -3.463,-15.621 L -2.778,-15.757 L -2.088,-15.863 L -1.394,-15.939 L -0.698,-15.985 L -0.000,-16.000 L 0.698,-15.985 L 1.394,-15.939 L 2.088,-15.863 L 2.778,-15.757 L 3.463,-15.621 L 4.141,-15.455 L 4.811,-15.259 L 5.472,-15.035 L 6.123,-14.782 L 6.762,-14.501 L 7.388,-14.192 L 8.000,-13.856 L 8.597,-13.494 L 9.177,-13.106 L 9.740,-12.694 L 10.285,-12.257 L 10.809,-11.796 L 11.314,-11.314 L 11.796,-10.809 L 12.257,-10.285 L 12.694,-9.740 L 13.106,-9.177 L 13.494,-8.597 L 13.856,-8.000 L 14.192,-7.388 L 14.501,-6.762 L 14.782,-6.123 L 15.035,-5.472 L 15.259,-4.811 L 15.455,-4.141 L 15.621,-3.463 L 15.757,-2.778 L 15.863,-2.088 L 15.939,-1.394 L 15.985,-0.698 L 16.000,-0.000 Z" fill="none" stroke="black" stroke-width="0.25"/>
</svg>
