<svg xmlns="http://www.w3.org/2000/svg" viewBox="-89.0 -23.0 178.0 46.0">
    <path d="M 80.000,9.000 L 79.957,9.653 L 79.830,10.294 L 79.619,10.913 L 79.330,11.500 L 78.967,12.044 L 78.536,12.536 L 78.044,12.967 L 77.500,13.330 L 76.913,13.619 L 76.294,13.830 L 75.653,13.957 L 75.000,14.000 L -75.000,14.000 L -75.653,13.957 L -76.294,13.830 L -76.913,13.619 L -77.500,13.330 L -78.044,12.967 L -78.536,12.536 L -78.967,12.044 L -79.330,11.500 L -79.619,10.913 L -79.830,10.294 L -79.957,9.653 L -80.000,9.000 L -80.000,-9.000 L -79.957,-9.653 L -79.830,-10.294 L -79.619,-10.913 L -79.330,-11.500 L -78.967,-12.044 L -78.536,-12.536 L -78.044,-12.967 L -77.500,-13.330 L -76.913,-13.619 L -76.294,-13.830 L -75.653,-13.957 L -75.000,-14.000 L 75.000,-14.000 L 75.653,-13.957 L 76.294,-13.830 L 76.913,-13.619 L 77.500,-13.330 L 78.044,-12.967 L 78.536,-12.536 L 78.967,-12.044 L 79.330,-11.500 L 79.619,-10.913 L 79.830,-10.294 L 79.957,-9.653 L 80.000,-9.000 Z" fill="none" stroke="black" stroke-width="0.25"/>
</svg>
