<svg xmlns="http://www.w3.org/2000/svg" viewBox="-23.0 -34.0 46.0 68.0">
    <path d="M 14.000,19.000 L 13.949,19.783 L 13.796,20.553 L 13.543,21.296 L 13.196,22.000 L 12.760,22.653 L 12.243,23.243 L 11.653,23.760 L 11.000,24.196 L 10.296,24.543 L 9.553,24.796 L 8.783,24.949 L 8.000,25.000 L -8.000,25.000 L -8.783,24.949 L -9.553,24.796 L -10.296,24.543 L -11.000,24.196 L -11.653,23.760 L -12.243,23.243 L -12.760,22.653 L -13.196,22.000 L -13.543,21.296 L -13.796,20.553 L -13.949,19.783 L -14.000,19.000 L -14.000,-19.000 L -13.949,-19.783 L -13.796,-20.553 L -13.543,-21.296 L -13.196,-22.000 L -12.760,-22.653 L -12.243,-23.243 L -11.653,-23.760 L -11.000,-24.196 L -10.296,-24.543 L -9.553,-24.796 L -8.783,-24.949 L -8.000,-25.000 L 8.000,-25.000 L 8.783,-24.949 L 9.553,-24.796 L 10.296,-24.543 L 11.000,-24.196 L 11.653,-23.760 L 12.243,-23.243 L 12.760,-22.653 L 13.196,-22.000 L 13.543,-21.296 L 13.796,-20.553 L 13.949,-19.783 L 14.000,-19.000 Z" fill="none" stroke="black" stroke-width="0.25"/>
    <g transform="translate(0,-21.150)">
        <path d="M 1.750,0.000 L 1.746,0.114 L 1.735,0.228 L 1.716,0.341 L 1.690,0.453 L 1.657,0.563 L 1.617,0.670 L 1.570,0.774 L 1.516,0.875 L 1.455,0.972 L 1.388,1.065 L 1.316,1.154 L 1.237,1.237 L 1.154,1.316 L 1.065,1.388 L 0.972,1.455 L 0.875,1.516 L 0.774,1.570 L 0.670,1.617 L 0.563,1.657 L 0.453,1.690 L 0.341,1.716 L 0.228,1.735 L 0.114,1.746 L 0.000,1.750 L -0.114,1.746 L -0.228,1.735 L -0.341,1.716 L -0.453,1.690 L -0.563,1.657 L -0.670,1.617 L -0.774,1.570 L -0.875,1.516 L -0.972,1.455 L -1.065,1.388 L -1.154,1.316 L -1.237,1.237 L -1.316,1.154 L -1.388,1.065 L -1.455,0.972 L -1.516,0.875 L -1.570,0.774 L -1.617,0.670 L -1.657,0.563 L -1.690,0.453 L -1.716,0.341 L -1.735,0.228 L -1.746,0.114 L -1.750,0.000 L -1.746,-0.114 L -1.735,-0.228 L -1.716,-0.341 L -1.690,-0.453 L -1.657,-0.563 L -1.617,-0.670 L -1.570,-0.774 L -1.516,-0.875 L -1.455,-0.972 L -1.388,-1.065 L -1.316,-1.154 L -1.237,-1.237 L -1.154,-1.316 L -1.065,-1.388 L -0.972,-1.455 L -0.875,-1.516 L -0.774,-1.570 L -0.670,-1.617 L -0.563,-1.657 L -0.453,-1.690 L -0.341,-1.716 L -0.228,-1.735 L -0.114,-1.746 L -0.000,-1.750 L 0.114,-1.746 L 0.228,-1.735 L 0.341,-1.716 L 0.453,-1.690 L 0.563,-1.657 L 0.670,-1.617 L 0.774,-1.570 L 0.875,-1.516 L 0.972,-1.455 L 1.065,-1.388 L 1.154,-1.316 L 1.237,-1.237 L 1.316,-1.154 L 1.388,-1.065 L 1.455,-0.972 L 1.516,-0.875 L 1.570,-0.774 L 1.617,-0.670 L 1.657,-0.563 L 1.690,-0.453 L 1.716,-0.341 L 1.735,-0.228 L 1.746,-0.114 L 1.750,-0.000 Z" fill="none" stroke="crimson" stroke-width="0.25"/>
    </g>
</svg>
