<svg xmlns="http://www.w3.org/2000/svg" viewBox="-22.0 -22.0 44.0 44.0">
    <path d="M 12.000,0.000 L 11.993,0.419 L 11.971,0.837 L 11.934,1.254 L 11.883,1.670 L 11.818,2.084 L 11.738,2.495 L 11.644,2.903 L 11.535,3.308 L 11.413,3.708 L 11.276,4.104 L 11.126,4.495 L 10.963,4.881 L 10.786,5.260 L 10.595,5.634 L 10.392,6.000 L 10.177,6.359 L 9.948,6.710 L 9.708,7.053 L 9.456,7.388 L 9.193,7.713 L 8.918,8.030 L 8.632,8.336 L 8.336,8.632 L 8.030,8.918 L 7.713,9.193 L 7.388,9.456 L 7.053,9.708 L 6.710,9.948 L 6.359,10.177 L 6.000,10.392 L 5.634,10.595 L 5.260,10.786 L 4.881,10.963 L 4.495,11.126 L 4.104,11.276 L 3.708,11.413 L 3.308,11.535 L 2.903,11.644 L 2.495,11.738 L 2.084,11.818 L 1.670,11.883 L 1.254,11.934 L 0.837,11.971 L 0.419,11.993 L 0.000,12.000 L -0.419,11.993 L -0.837,11.971 L -1.254,11.934 L -1.670,11.883 L -2.084,11.818 L -2.495,11.738 L -2.903,11.644 L -3.308,11.535 L -3.708,11.413 L -4.104,11.276 L -4.495,11.126 L -4.881,10.963 L -5.260,10.786 L -5.634,10.595 L -6.000,10.392 L -6.359,10.177 L -6.710,9.948 L -7.053,9.708 L -7.388,9.456 L -7.713,9.193 L -8.030,8.918 L -8.336,8.632 L -8.632,8.336 L -8.918,8.030 L -9.193,7.713 L -9.456,7.388 L -9.708,7.053 L -9.948,6.710 L -10.177,6.359 L -10.392,6.000 L -10.595,5.634 L -10.786,5.260 L -10.963,4.881 L -11.126,4.495 L -11.276,4.104 L -11.413,3.708 L -11.535,3.308 L -11.644,2.903 L -11.738,2.495 L -11.818,2.084 L -11.883,1.670 L -11.934,1.254 L -11.971,0.837 L -11.993,0.419 L -12.000,0.000 L -11.993,-0.419 L -11.971,-0.837 L -11.934,-1.254 L -11.883,-1.670 L -11.818,-2.084 L -11.738,-2.495 L -11.644,-2.903 L -11.535,-3.308 L -11.413,-3.708 L -11.276,-4.104 L -11.126,-4.495 L -10.963,-4.881 L -10.786,-5.260 L -10.595,-5.634 L -10.392,-6.000 L -10.177,-6.359 L -9.948,-6.710 L -9.708,-7.053 L -9.456,-7.388 L -9.193,-7.713 L -8.918,-8.030 L -8.632,-8.336 L -8.336,-8.632 L -8.030,-8.918 L -7.713,-9.193 L -7.388,-9.456 L -7.053,-9.708 L -6.710,-9.948 L -6.359,-10.177 L -6.000,-10.392 L -5.634,-10.595 L -5.260,-10.786 L -4.881,-10.963 L -4.495,-11.126 L -4.104,-11.276 L -3.708,-11.413 L -3.308,-11.535 L -2.903,-11.644 L -2.495,-11.738 L -2.084,-11.818 L -1.670,-11.883 L -1.254,-11.934 L -0.837,-11.971 L -0.419,-11.993 L -0.000,-12.000 L 0.419,-11.993 L 0.837,-11.971 L 1.254,-11.934 L 1.670,-11.883 L 2.084,-11.818 L 2.495,-11.738 L 2.903,-11.644 L 3.308,-11.535 L 3.708,-11.413 L 4.104,-11.276 L 4.495,-11.126 L 4.881,-10.963 L 5.260,-10.786 L 5.634,-10.595 L 6.000,-10.392 L 6.359,-10.177 L 6.710,-9.948 L 7.053,-9.708 L 7.388,-9.456 L 7.713,-9.193 L 8.030,-8.918 L 8.336,-8.632 L 8.632,-8.336 L 8.918,-8.030 L 9.193,-7.713 L 9.456,-7.388 L 9.708,-7.053 L 9.948,-6.710 L 10.177,-6.359 L 10.392,-6.000 L 10.595,-5.634 L 10.786,-5.260 L 10.963,-4.881 L 11.126,-4.495 L 11.276,-4.104 L 11.413,-3.708 L 11.535,-3.308 L 11.644,-2.903 L 11.738,-2.495 L 11.818,-2.084 L 11.883,-1.670 L 11.934,-1.254 L 11.971,-0.837 L 11.993,-0.419 L 12.000,-0.000 Z" fill="none" stroke="black" stroke-width="0.25"/>
    <path d="M 9.100,0.000 L 9.094,0.318 L 9.078,0.635 L 9.050,0.951 L 9.011,1.266 L 8.962,1.580 L 8.901,1.892 L 8.830,2.201 L 8.747,2.508 L 8.655,2.812 L 8.551,3.112 L 8.437,3.409 L 8.313,3.701 L 8.179,3.989 L 8.035,4.272 L 7.881,4.550 L 7.717,4.822 L 7.544,5.089 L 7.362,5.349 L 7.171,5.603 L 6.971,5.849 L 6.763,6.089 L 6.546,6.321 L 6.321,6.546 L 6.089,6.763 L 5.849,6.971 L 5.603,7.171 L 5.349,7.362 L 5.089,7.544 L 4.822,7.717 L 4.550,7.881 L 4.272,8.035 L 3.989,8.179 L 3.701,8.313 L 3.409,8.437 L 3.112,8.551 L 2.812,8.655 L 2.508,8.747 L 2.201,8.830 L 1.892,8.901 L 1.580,8.962 L 1.266,9.011 L 0.951,9.050 L 0.635,9.078 L 0.318,9.094 L 0.000,9.100 L -0.318,9.094 L -0.635,9.078 L -0.951,9.050 L -1.266,9.011 L -1.580,8.962 L -1.892,8.901 L -2.201,8.830 L -2.508,8.747 L -2.812,8.655 L -3.112,8.551 L -3.409,8.437 L -3.701,8.313 L -3.989,8.179 L -4.272,8.035 L -4.550,7.881 L -4.822,7.717 L -5.089,7.544 L -5.349,7.362 L -5.603,7.171 L -5.849,6.971 L -6.089,6.763 L -6.321,6.546 L -6.546,6.321 L -6.763,6.089 L -6.971,5.849 L -7.171,5.603 L -7.362,5.349 L -7.544,5.089 L -7.717,4.822 L -7.881,4.550 L -8.035,4.272 L -8.179,3.989 L -8.313,3.701 L -8.437,3.409 L -8.551,3.112 L -8.655,2.812 L -8.747,2.508 L -8.830,2.201 L -8.901,1.892 L -8.962,1.580 L -9.011,1.266 L -9.050,0.951 L -9.078,0.635 L -9.094,0.318 L -9.100,0.000 L -9.094,-0.318 L -9.078,-0.635 L -9.050,-0.951 L -9.011,-1.266 L -8.962,-1.580 L -8.901,-1.892 L -8.830,-2.201 L -8.747,-2.508 L -8.655,-2.812 L -8.551,-3.112 L -8.437,-3.409 L -8.313,-3.701 L -8.179,-3.989 L -8.035,-4.272 L -7.881,-4.550 L -7.717,-4.822 L -7.544,-5.089 L -7.362,-5.349 L -7.171,-5.603 L -6.971,-5.849 L -6.763,-6.089 L -6.546,-6.321 L -6.321,-6.546 L -6.089,-6.763 L -5.849,-6.971 L -5.603,-7.171 L -5.349,-7.362 L -5.089,-7.544 L -4.822,-7.717 L -4.550,-7.881 L -4.272,-8.035 L -3.989,-8.179 L -3.701,-8.313 L -3.409,-8.437 L -3.112,-8.551 L -2.812,-8.655 L -2.508,-8.747 L -2.201,-8.830 L -1.892,-8.901 L -1.580,-8.962 L -1.266,-9.011 L -0.951,-9.050 L -0.635,-9.078 L -0.318,-9.094 L -0.000,-9.100 L 0.318,-9.094 L 0.635,-9.078 L 0.951,-9.050 L 1.266,-9.011 L 1.580,-8.962 L 1.892,-8.901 L 2.201,-8.830 L 2.508,-8.747 L 2.812,-8.655 L 3.112,-8.551 L 3.409,-8.437 L 3.701,-8.313 L 3.989,-8.179 L 4.272,-8.035 L 4.550,-7.881 L 4.822,-7.717 L 5.089,-7.544 L 5.349,-7.362 L 5.603,-7.171 L 5.849,-6.971 L 6.089,-6.763 L 6.321,-6.546 L 6.546,-6.321 L 6.763,-6.089 L 6.971,-5.849 L 7.171,-5.603 L 7.362,-5.349 L 7.544,-5.089 L 7.717,-4.822 L 7.881,-4.550 L 8.035,-4.272 L 8.179,-3.989 L 8.313,-3.701 L 8.437,-3.409 L 8.551,-3.112 L 8.655,-2.812 L 8.747,-2.508 L 8.830,-2.201 L 8.901,-1.892 L 8.962,-1.580 L 9.011,-1.266 L 9.050,-0.951 L 9.078,-0.635 L 9.094,-0.318 L 9.100,-0.000 Z" fill="none" stroke="sienna" stroke-width="0.25"/>
    <g transform="translate(0,-16.400)">
        <path d="M 7.000,2.560 L 6.988,2.748 L 6.951,2.933 L 6.890,3.111 L 6.807,3.280 L 6.702,3.437 L 6.578,3.578 L 6.437,3.702 L 6.280,3.807 L 6.111,3.890 L 5.933,3.951 L 5.748,3.988 L 5.560,4.000 L -5.560,4.000 L -5.748,3.988 L -5.933,3.951 L -6.111,3.890 L -6.280,3.807 L -6.437,3.702 L -6.578,3.578 L -6.702,3.437 L -6.807,3.280 L -6.890,3.111 L -6.951,2.933 L -6.988,2.748 L -7.000,2.560 L -7.000,-2.560 L -6.988,-2.748 L -6.951,-2.933 L -6.890,-3.111 L -6.807,-3.280 L -6.702,-3.437 L -6.578,-3.578 L -6.437,-3.702 L -6.280,-3.807 L -6.111,-3.890 L -5.933,-3.951 L -5.748,-3.988 L -5.560,-4.000 L 5.560,-4.000 L 5.748,-3.988 L 5.933,-3.951 L 6.111,-3.890 L 6.280,-3.807 L 6.437,-3.702 L 6.578,-3.578 L 6.702,-3.437 L 6.807,-3.280 L 6.890,-3.111 L 6.951,-2.933 L 6.988,-2.748 L 7.000,-2.560 Z" fill="none" stroke="indigo" stroke-width="0.25"/>
    </g>
</svg>
