<svg xmlns="http://www.w3.org/2000/svg" viewBox="-37.0 -22.0 74.0 44.0">
    <g transform="translate(-15.000,0)">
        <path d="M 11.000,0.000 L 10.993,0.384 L 10.973,0.767 L 10.940,1.150 L 10.893,1.531 L 10.833,1.910 L 10.760,2.287 L 10.673,2.661 L 10.574,3.032 L 10.462,3.399 L 10.337,3.762 L 10.199,4.121 L 10.049,4.474 L 9.887,4.822 L 9.712,5.164 L 9.526,5.500 L 9.329,5.829 L 9.119,6.151 L 8.899,6.466 L 8.668,6.772 L 8.426,7.071 L 8.175,7.360 L 7.913,7.641 L 7.641,7.913 L 7.360,8.175 L 7.071,8.426 L 6.772,8.668 L 6.466,8.899 L 6.151,9.119 L 5.829,9.329 L 5.500,9.526 L 5.164,9.712 L 4.822,9.887 L 4.474,10.049 L 4.121,10.199 L 3.762,10.337 L 3.399,10.462 L 3.032,10.574 L 2.661,10.673 L 2.287,10.760 L 1.910,10.833 L 1.531,10.893 L 1.150,10.940 L 0.767,10.973 L 0.384,10.993 L 0.000,11.000 L -0.384,10.993 L -0.767,10.973 L -1.150,10.940 L -1.531,10.893 L -1.910,10.833 L -2.287,10.760 L -2.661,10.673 L -3.032,10.574 L -3.399,10.462 L -3.762,10.337 L -4.121,10.199 L -4.474,10.049 L -4.822,9.887 L -5.164,9.712 L -5.500,9.526 L -5.829,9.329 L -6.151,9.119 L -6.466,8.899 L -6.772,8.668 L -7.071,8.426 L -7.360,8.175 L -7.641,7.913 L -7.913,7.641 L -8.175,7.360 L -8.426,7.071 L -8.668,6.772 L -8.899,6.466 L -9.119,6.151 L -9.329,5.829 L -9.526,5.500 L -9.712,5.164 L -9.887,4.822 L -10.049,4.474 L -10.199,4.121 L -10.337,3.762 L -10.462,3.399 L -10.574,3.032 L -10.673,2.661 L -10.760,2.287 L -10.833,1.910 L -10.893,1.531 L -10.940,1.150 L -10.973,0.767 L -10.993,0.384 L -11.000,0.000 L -10.993,-0.384 L -10.973,-0.767 L -10.940,-1.150 L -10.893,-1.531 L -10.833,-1.910 L -10.760,-2.287 L -10.673,-2.661 L -10.574,-3.032 L -10.462,-3.399 L -10.337,-3.762 L -10.199,-4.121 L -10.049,-4.474 L -9.887,-4.822 L -9.712,-5.164 L -9.526,-5.500 L -9.329,-5.829 L -9.119,-6.151 L -8.899,-6.466 L -8.668,-6.772 L -8.426,-7.071 L -8.175,-7.360 L -7.913,-7.641 L -7.641,-7.913 L -7.360,-8.175 L -7.071,-8.426 L -6.772,-8.668 L -6.466,-8.899 L -6.151,-9.119 L -5.829,-9.329 L -5.500,-9.526 L -5.164,-9.712 L -4.822,-9.887 L -4.474,-10.049 L -4.121,-10.199 L -3.762,-10.337 L -3.399,-10.462 L -3.032,-10.574 L -2.661,-10.673 L -2.287,-10.760 L -1.910,-10.833 L -1.531,-10.893 L -1.150,-10.940 L -0.767,-10.973 L -0.384,-10.993 L -0.000,-11.000 L 0.384,-10.993 L 0.767,-10.973 L 1.150,-10.940 L 1.531,-10.893 L 1.910,-10.833 L 2.287,-10.760 L 2.661,-10.673 L 3.032,-10.574 L 3.399,-10.462 L 3.762,-10.337 L 4.121,-10.199 L 4.474,-10.049 L 4.822,-9.887 L 5.164,-9.712 L 5.500,-9.526 L 5.829,-9.329 L 6.151,-9.119 L 6.466,-8.899 L 6.772,-8.668 L 7.071,-8.426 L 7.360,-8.175 L 7.641,-7.913 L 7.913,-7.641 L 8.175,-7.360 L 8.426,-7.071 L 8.668,-6.772 L 8.899,-6.466 L 9.119,-6.151 L 9.329,-5.829 L 9.526,-5.500 L 9.712,-5.164 L 9.887,-4.822 L 10.049,-4.474 L 10.199,-4.121 L 10.337,-3.762 L 10.462,-3.399 L 10.574,-3.032 L 10.673,-2.661 L 10.760,-2.287 L 10.833,-1.910 L 10.893,-1.531 L 10.940,-1.150 L 10.973,-0.767 L 10.993,-0.384 L 11.000,-0.000 Z" fill="none" stroke="black" stroke-width="0.25"/>
        <path d="M 9.000,0.000 L 8.995,0.314 L 8.978,0.628 L 8.951,0.941 L 8.912,1.253 L 8.863,1.563 L 8.803,1.871 L 8.733,2.177 L 8.651,2.481 L 8.560,2.781 L 8.457,3.078 L 8.345,3.371 L 8.222,3.661 L 8.089,3.945 L 7.947,4.225 L 7.794,4.500 L 7.632,4.769 L 7.461,5.033 L 7.281,5.290 L 7.092,5.541 L 6.894,5.785 L 6.688,6.022 L 6.474,6.252 L 6.252,6.474 L 6.022,6.688 L 5.785,6.894 L 5.541,7.092 L 5.290,7.281 L 5.033,7.461 L 4.769,7.632 L 4.500,7.794 L 4.225,7.947 L 3.945,8.089 L 3.661,8.222 L 3.371,8.345 L 3.078,8.457 L 2.781,8.560 L 2.481,8.651 L 2.177,8.733 L 1.871,8.803 L 1.563,8.863 L 1.253,8.912 L 0.941,8.951 L 0.628,8.978 L 0.314,8.995 L 0.000,9.000 L -0.314,8.995 L -0.628,8.978 L -0.941,8.951 L -1.253,8.912 L -1.563,8.863 L -1.871,8.803 L -2.177,8.733 L -2.481,8.651 L -2.781,8.560 L -3.078,8.457 L -3.371,8.345 L -3.661,8.222 L -3.945,8.089 L -4.225,7.947 L -4.500,7.794 L -4.769,7.632 L -5.033,7.461 L -5.290,7.281 L -5.541,7.092 L -5.785,6.894 L -6.022,6.688 L -6.252,6.474 L -6.474,6.252 L -6.688,6.022 L -6.894,5.785 L -7.092,5.541 L -7.281,5.290 L -7.461,5.033 L -7.632,4.769 L -7.794,4.500 L -7.947,4.225 L -8.089,3.945 L -8.222,3.661 L -8.345,3.371 L -8.457,3.078 L -8.560,2.781 L -8.651,2.481 L -8.733,2.177 L -8.803,1.871 L -8.863,1.563 L -8.912,1.253 L -8.951,0.941 L -8.978,0.628 L -8.995,0.314 L -9.000,0.000 L -8.995,-0.314 L -8.978,-0.628 L -8.951,-0.941 L -8.912,-1.253 L -8.863,-1.563 L -8.803,-1.871 L -8.733,-2.177 L -8.651,-2.481 L -8.560,-2.781 L -8.457,-3.078 L -8.345,-3.371 L -8.222,-3.661 L -8.089,-3.945 L -7.947,-4.225 L -7.794,-4.500 L -7.632,-4.769 L -7.461,-5.033 L -7.281,-5.290 L -7.092,-5.541 L -6.894,-5.785 L -6.688,-6.022 L -6.474,-6.252 L -6.252,-6.474 L -6.022,-6.688 L -5.785,-6.894 L -5.541,-7.092 L -5.290,-7.281 L -5.033,-7.461 L -4.769,-7.632 L -4.500,-7.794 L -4.225,-7.947 L -3.945,-8.089 L -3.661,-8.222 L -3.371,-8.345 L -3.078,-8.457 L -2.781,-8.560 L -2.481,-8.651 L -2.177,-8.733 L -1.871,-8.803 L -1.563,-8.863 L -1.253,-8.912 L -0.941,-8.951 L -0.628,-8.978 L -0.314,-8.995 L -0.000,-9.000 L 0.314,-8.995 L 0.628,-8.978 L 0.941,-8.951 L 1.253,-8.912 L 1.563,-8.863 L 1.871,-8.803 L 2.177,-8.733 L 2.481,-8.651 L 2.781,-8.560 L 3.078,-8.457 L 3.371,-8.345 L 3.661,-8.222 L 3.945,-8.089 L 4.225,-7.947 L 4.500,-7.794 L 4.769,-7.632 L 5.033,-7.461 L 5.290,-7.281 L 5.541,-7.092 L 5.785,-6.894 L 6.022,-6.688 L 6.252,-6.474 L 6.474,-6.252 L 6.688,-6.022 L 6.894,-5.785 L 7.092,-5.541 L 7.281,-5.290 L 7.461,-5.033 L 7.632,-4.769 L 7.794,-4.500 L 7.947,-4.225 L 8.089,-3.945 L 8.222,-3.661 L 8.345,-3.371 L 8.457,-3.078 L 8.560,-2.781 L 8.651,-2.481 L 8.733,-2.177 L 8.803,-1.871 L 8.863,-1.563 L 8.912,-1.253 L 8.951,-0.941 L 8.978,-0.628 L 8.995,-0.314 L 9.000,-0.000 Z" fill="none" stroke="gray" stroke-width="0.25"/>
    </g>
    <g transform="translate(15.000,0)">
        <path d="M 11.000,0.000 L 10.993,0.384 L 10.973,0.767 L 10.940,1.150 L 10.893,1.531 L 10.833,1.910 L 10.760,2.287 L 10.673,2.661 L 10.574,3.032 L 10.462,3.399 L 10.337,3.762 L 10.199,4.121 L 10.049,4.474 L 9.887,4.822 L 9.712,5.164 L 9.526,5.500 L 9.329,5.829 L 9.119,6.151 L 8.899,6.466 L 8.668,6.772 L 8.426,7.071 L 8.175,7.360 L 7.913,7.641 L 7.641,7.913 L 7.360,8.175 L 7.071,8.426 L 6.772,8.668 L 6.466,8.899 L 6.151,9.119 L 5.829,9.329 L 5.500,9.526 L 5.164,9.712 L 4.822,9.887 L 4.474,10.049 L 4.121,10.199 L 3.762,10.337 L 3.399,10.462 L 3.032,10.574 L 2.661,10.673 L 2.287,10.760 L 1.910,10.833 L 1.531,10.893 L 1.150,10.940 L 0.767,10.973 L 0.384,10.993 L 0.000,11.000 L -0.384,10.993 L -0.767,10.973 L -1.150,10.940 L -1.531,10.893 L -1.910,10.833 L -2.287,10.760 L -2.661,10.673 L -3.032,10.574 L -3.399,10.462 L -3.762,10.337 L -4.121,10.199 L -4.474,10.049 L -4.822,9.887 L -5.164,9.712 L -5.500,9.526 L -5.829,9.329 L -6.151,9.119 L -6.466,8.899 L -6.772,8.668 L -7.071,8.426 L -7.360,8.175 L -7.641,7.913 L -7.913,7.641 L -8.175,7.360 L -8.426,7.071 L -8.668,6.772 L -8.899,6.466 L -9.119,6.151 L -9.329,5.829 L -9.526,5.500 L -9.712,5.164 L -9.887,4.822 L -10.049,4.474 L -10.199,4.121 L -10.337,3.762 L -10.462,3.399 L -10.574,3.032 L -10.673,2.661 L -10.760,2.287 L -10.833,1.910 L -10.893,1.531 L -10.940,1.150 L -10.973,0.767 L -10.993,0.384 L -11.000,0.000 L -10.993,-0.384 L -10.973,-0.767 L -10.940,-1.150 L -10.893,-1.531 L -10.833,-1.910 L -10.760,-2.287 L -10.673,-2.661 L -10.574,-3.032 L -10.462,-3.399 L -10.337,-3.762 L -10.199,-4.121 L -10.049,-4.474 L -9.887,-4.822 L -9.712,-5.164 L -9.526,-5.500 L -9.329,-5.829 L -9.119,-6.151 L -8.899,-6.466 L -8.668,-6.772 L -8.426,-7.071 L -8.175,-7.360 L -7.913,-7.641 L -7.641,-7.913 L -7.360,-8.175 L -7.071,-8.426 L -6.772,-8.668 L -6.466,-8.899 L -6.151,-9.119 L -5.829,-9.329 L -5.500,-9.526 L -5.164,-9.712 L -4.822,-9.887 L -4.474,-10.049 L -4.121,-10.199 L -3.762,-10.337 L -3.399,-10.462 L -3.032,-10.574 L -2.661,-10.673 L -2.287,-10.760 L -1.910,-10.833 L -1.531,-10.893 L -1.150,-10.940 L -0.767,-10.973 L -0.384,-10.993 L -0.000,-11.000 L 0.384,-10.993 L 0.767,-10.973 L 1.150,-10.940 L 1.531,-10.893 L 1.910,-10.833 L 2.287,-10.760 L 2.661,-10.673 L 3.032,-10.574 L 3.399,-10.462 L 3.762,-10.337 L 4.121,-10.199 L 4.474,-10.049 L 4.822,-9.887 L 5.164,-9.712 L 5.500,-9.526 L 5.829,-9.329 L 6.151,-9.119 L 6.466,-8.899 L 6.772,-8.668 L 7.071,-8.426 L 7.360,-8.175 L 7.641,-7.913 L 7.913,-7.641 L 8.175,-7.360 L 8.426,-7.071 L 8.668,-6.772 L 8.899,-6.466 L 9.119,-6.151 L 9.329,-5.829 L 9.526,-5.500 L 9.712,-5.164 L 9.887,-4.822 L 10.049,-4.474 L 10.199,-4.121 L 10.337,-3.762 L 10.462,-3.399 L 10.574,-3.032 L 10.673,-2.661 L 10.760,-2.287 L 10.833,-1.910 L 10.893,-1.531 L 10.940,-1.150 L 10.973,-0.767 L 10.993,-0.384 L 11.000,-0.000 Z" fill="none" stroke="black" stroke-width="0.25"/>
        <path d="M 9.000,0.000 L 8.995,0.314 L 8.978,0.628 L 8.951,0.941 L 8.912,1.253 L 8.863,1.563 L 8.803,1.871 L 8.733,2.177 L 8.651,2.481 L 8.560,2.781 L 8.457,3.078 L 8.345,3.371 L 8.222,3.661 L 8.089,3.945 L 7.947,4.225 L 7.794,4.500 L 7.632,4.769 L 7.461,5.033 L 7.281,5.290 L 7.092,5.541 L 6.894,5.785 L 6.688,6.022 L 6.474,6.252 L 6.252,6.474 L 6.022,6.688 L 5.785,6.894 L 5.541,7.092 L 5.290,7.281 L 5.033,7.461 L 4.769,7.632 L 4.500,7.794 L 4.225,7.947 L 3.945,8.089 L 3.661,8.222 L 3.371,8.345 L 3.078,8.457 L 2.781,8.560 L 2.481,8.651 L 2.177,8.733 L 1.871,8.803 L 1.563,8.863 L 1.253,8.912 L 0.941,8.951 L 0.628,8.978 L 0.314,8.995 L 0.000,9.000 L -0.314,8.995 L -0.628,8.978 L -0.941,8.951 L -1.253,8.912 L -1.563,8.863 L -1.871,8.803 L -2.177,8.733 L -2.481,8.651 L -2.781,8.560 L -3.078,8.457 L -3.371,8.345 L -3.661,8.222 L -3.945,8.089 L -4.225,7.947 L -4.500,7.794 L -4.769,7.632 L -5.033,7.461 L -5.290,7.281 L -5.541,7.092 L -5.785,6.894 L -6.022,6.688 L -6.252,6.474 L -6.474,6.252 L -6.688,6.022 L -6.894,5.785 L -7.092,5.541 L -7.281,5.290 L -7.461,5.033 L -7.632,4.769 L -7.794,4.500 L -7.947,4.225 L -8.089,3.945 L -8.222,3.661 L -8.345,3.371 L -8.457,3.078 L -8.560,2.781 L -8.651,2.481 L -8.733,2.177 L -8.803,1.871 L -8.863,1.563 L -8.912,1.253 L -8.951,0.941 L -8.978,0.628 L -8.995,0.314 L -9.000,0.000 L -8.995,-0.314 L -8.978,-0.628 L -8.951,-0.941 L -8.912,-1.253 L -8.863,-1.563 L -8.803,-1.871 L -8.733,-2.177 L -8.651,-2.481 L -8.560,-2.781 L -8.457,-3.078 L -8.345,-3.371 L -8.222,-3.661 L -8.089,-3.945 L -7.947,-4.225 L -7.794,-4.500 L -7.632,-4.769 L -7.461,-5.033 L -7.281,-5.290 L -7.092,-5.541 L -6.894,-5.785 L -6.688,-6.022 L -6.474,-6.252 L -6.252,-6.474 L -6.022,-6.688 L -5.785,-6.894 L -5.541,-7.092 L -5.290,-7.281 L -5.033,-7.461 L -4.769,-7.632 L -4.500,-7.794 L -4.225,-7.947 L -3.945,-8.089 L -3.661,-8.222 L -3.371,-8.345 L -3.078,-8.457 L -2.781,-8.560 L -2.481,-8.651 L -2.177,-8.733 L -1.871,-8.803 L -1.563,-8.863 L -1.253,-8.912 L -0.941,-8.951 L -0.628,-8.978 L -0.314,-8.995 L -0.000,-9.000 L 0.314,-8.995 L 0.628,-8.978 L 0.941,-8.951 L 1.253,-8.912 L 1.563,-8.863 L 1.871,-8.803 L 2.177,-8.733 L 2.481,-8.651 L 2.781,-8.560 L 3.078,-8.457 L 3.371,-8.345 L 3.661,-8.222 L 3.945,-8.089 L 4.225,-7.947 L 4.500,-7.794 L 4.769,-7.632 L 5.033,-7.461 L 5.290,-7.281 L 5.541,-7.092 L 5.785,-6.894 L 6.022,-6.688 L 6.252,-6.474 L 6.474,-6.252 L 6.688,-6.022 L 6.894,-5.785 L 7.092,-5.541 L 7.281,-5.290 L 7.461,-5.033 L 7.632,-4.769 L 7.794,-4.500 L 7.947,-4.225 L 8.089,-3.945 L 8.222,-3.661 L 8.345,-3.371 L 8.457,-3.078 L 8.560,-2.781 L 8.651,-2.481 L 8.733,-2.177 L 8.803,-1.871 L 8.863,-1.563 L 8.912,-1.253 L 8.951,-0.941 L 8.978,-0.628 L 8.995,-0.314 L 9.000,-0.000 Z" fill="none" stroke="gray" stroke-width="0.25"/>
    </g>
</svg>
