<svg xmlns="http://www.w3.org/2000/svg" viewBox="-20.0 -23.0 40.0 46.0">
    <g transform="scale(1,1.272727)">
        <path d="M 11.000,0.000 L 10.990,0.480 L 10.958,0.959 L 10.906,1.436 L 10.833,1.910 L 10.739,2.381 L 10.625,2.847 L 10.491,3.308 L 10.337,3.762 L 10.163,4.210 L 9.969,4.649 L 9.757,5.079 L 9.526,5.500 L 9.277,5.910 L 9.011,6.309 L 8.727,6.696 L 8.426,7.071 L 8.110,7.431 L 7.778,7.778 L 7.431,8.110 L 7.071,8.426 L 6.696,8.727 L 6.309,9.011 L 5.910,9.277 L 5.500,9.526 L 5.079,9.757 L 4.649,9.969 L 4.210,10.163 L 3.762,10.337 L 3.308,10.491 L 2.847,10.625 L 2.381,10.739 L 1.910,10.833 L 1.436,10.906 L 0.959,10.958 L 0.480,10.990 L 0.000,11.000 L -0.480,10.990 L -0.959,10.958 L -1.436,10.906 L -1.910,10.833 L -2.381,10.739 L -2.847,10.625 L -3.308,10.491 L -3.762,10.337 L -4.210,10.163 L -4.649,9.969 L -5.079,9.757 L -5.500,9.526 L -5.910,9.277 L -6.309,9.011 L -6.696,8.727 L -7.071,8.426 L -7.431,8.110 L -7.778,7.778 L -8.110,7.431 L -8.426,7.071 L -8.727,6.696 L -9.011,6.309 L -9.277,5.910 L -9.526,5.500 L -9.757,5.079 L -9.969,4.649 L -10.163,4.210 L -10.337,3.762 L -10.491,3.308 L -10.625,2.847 L -10.739,2.381 L -10.833,1.910 L -10.906,1.436 L -10.958,0.959 L -10.990,0.480 L -11.000,0.000 L -10.990,-0.480 L -10.958,-0.959 L -10.906,-1.436 L -10.833,-1.910 L -10.739,-2.381 L -10.625,-2.847 L -10.491,-3.308 L -10.337,-3.762 L -10.163,-4.210 L -9.969,-4.649 L -9.757,-5.079 L -9.526,-5.500 L -9.277,-5.910 L -9.011,-6.309 L -8.727,-6.696 L -8.426,-7.071 L -8.110,-7.431 L -7.778,-7.778 L -7.431,-8.110 L -7.071,-8.426 L -6.696,-8.727 L -6.309,-9.011 L -5.910,-9.277 L -5.500,-9.526 L -5.079,-9.757 L -4.649,-9.969 L -4.210,-10.163 L -3.762,-10.337 L -3.308,-10.491 L -2.847,-10.625 L -2.381,-10.739 L -1.910,-10.833 L -1.436,-10.906 L -0.959,-10.958 L -0.480,-10.990 L -0.000,-11.000 L 0.480,-10.990 L 0.959,-10.958 L 1.436,-10.906 L 1.910,-10.833 L 2.381,-10.739 L 2.847,-10.625 L 3.308,-10.491 L 3.762,-10.337 L 4.210,-10.163 L 4.649,-9.969 L 5.079,-9.757 L 5.500,-9.526 L 5.910,-9.277 L 6.309,-9.011 L 6.696,-8.727 L 7.071,-8.426 L 7.431,-8.110 L 7.778,-7.778 L 8.110,-7.431 L 8.426,-7.071 L 8.727,-6.696 L 9.011,-6.309 L 9.277,-5.910 L 9.526,-5.500 L 9.757,-5.079 L 9.969,-4.649 L 10.163,-4.210 L 10.337,-3.762 L 10.491,-3.308 L 10.625,-2.847 L 10.739,-2.381 L 10.833,-1.910 L 10.906,-1.436 L 10.958,-0.959 L 10.990,-0.480 L 11.000,-0.000 Z" fill="none" stroke="black" stroke-width="0.25"/>
    </g>
    <g transform="scale(1,1.375000)">
        <path d="M 8.000,0.000 L 7.992,0.349 L 7.970,0.697 L 7.932,1.044 L 7.878,1.389 L 7.810,1.732 L 7.727,2.071 L 7.630,2.406 L 7.518,2.736 L 7.391,3.061 L 7.250,3.381 L 7.096,3.694 L 6.928,4.000 L 6.747,4.298 L 6.553,4.589 L 6.347,4.870 L 6.128,5.142 L 5.898,5.405 L 5.657,5.657 L 5.405,5.898 L 5.142,6.128 L 4.870,6.347 L 4.589,6.553 L 4.298,6.747 L 4.000,6.928 L 3.694,7.096 L 3.381,7.250 L 3.061,7.391 L 2.736,7.518 L 2.406,7.630 L 2.071,7.727 L 1.732,7.810 L 1.389,7.878 L 1.044,7.932 L 0.697,7.970 L 0.349,7.992 L 0.000,8.000 L -0.349,7.992 L -0.697,7.970 L -1.044,7.932 L -1.389,7.878 L -1.732,7.810 L -2.071,7.727 L -2.406,7.630 L -2.736,7.518 L -3.061,7.391 L -3.381,7.250 L -3.694,7.096 L -4.000,6.928 L -4.298,6.747 L -4.589,6.553 L -4.870,6.347 L -5.142,6.128 L -5.405,5.898 L -5.657,5.657 L -5.898,5.405 L -6.128,5.142 L -6.347,4.870 L -6.553,4.589 L -6.747,4.298 L -6.928,4.000 L -7.096,3.694 L -7.250,3.381 L -7.391,3.061 L -7.518,2.736 L -7.630,2.406 L -7.727,2.071 L -7.810,1.732 L -7.878,1.389 L -7.932,1.044 L -7.970,0.697 L -7.992,0.349 L -8.000,0.000 L -7.992,-0.349 L -7.970,-0.697 L -7.932,-1.044 L -7.878,-1.389 L -7.810,-1.732 L -7.727,-2.071 L -7.630,-2.406 L -7.518,-2.736 L -7.391,-3.061 L -7.250,-3.381 L -7.096,-3.694 L -6.928,-4.000 L -6.747,-4.298 L -6.553,-4.589 L -6.347,-4.870 L -6.128,-5.142 L -5.898,-5.405 L -5.657,-5.657 L -5.405,-5.898 L -5.142,-6.128 L -4.870,-6.347 L -4.589,-6.553 L -4.298,-6.747 L -4.000,-6.928 L -3.694,-7.096 L -3.381,-7.250 L -3.061,-7.391 L -2.736,-7.518 L -2.406,-7.630 L -2.071,-7.727 L -1.732,-7.810 L -1.389,-7.878 L -1.044,-7.932 L -0.697,-7.970 L -0.349,-7.992 L -0.000,-8.000 L 0.349,-7.992 L 0.697,-7.970 L 1.044,-7.932 L 1.389,-7.878 L 1.732,-7.810 L 2.071,-7.727 L 2.406,-7.630 L 2.736,-7.518 L 3.061,-7.391 L 3.381,-7.250 L 3.694,-7.096 L 4.000,-6.928 L 4.298,-6.747 L 4.589,-6.553 L 4.870,-6.347 L 5.142,-6.128 L 5.405,-5.898 L 5.657,-5.657 L 5.898,-5.405 L 6.128,-5.142 L 6.347,-4.870 L 6.553,-4.589 L 6.747,-4.298 L 6.928,-4.000 L 7.096,-3.694 L 7.250,-3.381 L 7.391,-3.061 L 7.518,-2.736 L 7.630,-2.406 L 7.727,-2.071 L 7.810,-1.732 L 7.878,-1.389 L 7.932,-1.044 L 7.970,-0.697 L 7.992,-0.349 L 8.000,-0.000 Z" fill="none" stroke="teal" stroke-width="0.25"/>
    </g>
</svg>
