<svg xmlns="http://www.w3.org/2000/svg" viewBox="-23.0 -27.0 46.0 54.0">
    <path d="M 14.000,11.840 L 13.947,12.644 L 13.790,13.434 L 13.531,14.197 L 13.175,14.920 L 12.727,15.590 L 12.196,16.196 L 11.590,16.727 L 10.920,17.175 L 10.197,17.531 L 9.434,17.790 L 8.644,17.947 L 7.840,18.000 L -7.840,18.000 L -8.644,17.947 L -9.434,17.790 L -10.197,17.531 L -10.920,17.175 L -11.590,16.727 L -12.196,16.196 L -12.727,15.590 L -13.175,14.920 L -13.531,14.197 L -13.790,13.434 L -13.947,12.644 L -14.000,11.840 L -14.000,-11.840 L -13.947,-12.644 L -13.790,-13.434 L -13.531,-14.197 L -13.175,-14.920 L -12.727,-15.590 L -12.196,-16.196 L -11.590,-16.727 L -10.920,-17.175 L -10.197,-17.531 L -9.434,-17.790 L -8.644,-17.947 L -7.840,-18.000 L 7.840,-18.000 L 8.644,-17.947 L 9.434,-17.790 L 10.197,-17.531 L 10.920,-17.175 L 11.590,-16.727 L 12.196,-16.196 L 12.727,-15.590 L 13.175,-14.920 L 13.531,-14.197 L 13.790,-13.434 L 13.947,-12.644 L 14.000,-11.840 Z" fill="none" stroke="black" stroke-width="0.25"/>
    <g transform="translate(0,-15.300)">
        <path d="M 1.500,0.000 L 1.497,0.098 L 1.487,0.196 L 1.471,0.293 L 1.449,0.388 L 1.420,0.482 L 1.386,0.574 L 1.345,0.663 L 1.299,0.750 L 1.247,0.833 L 1.190,0.913 L 1.128,0.989 L 1.061,1.061 L 0.989,1.128 L 0.913,1.190 L 0.833,1.247 L 0.750,1.299 L 0.663,1.345 L 0.574,1.386 L 0.482,1.420 L 0.388,1.449 L 0.293,1.471 L 0.196,1.487 L 0.098,1.497 L 0.000,1.500 L -0.098,1.497 L -0.196,1.487 L -0.293,1.471 L -0.388,1.449 L -0.482,1.420 L -0.574,1.386 L -0.663,1.345 L -0.750,1.299 L -0.833,1.247 L -0.913,1.190 L -0.989,1.128 L -1.061,1.061 L -1.128,0.989 L -1.190,0.913 L -1.247,0.833 L -1.299,0.750 L -1.345,0.663 L -1.386,0.574 L -1.420,0.482 L -1.449,0.388 L -1.471,0.293 L -1.487,0.196 L -1.497,0.098 L -1.500,0.000 L -1.497,-0.098 L -1.487,-0.196 L -1.471,-0.293 L -1.449,-0.388 L -1.420,-0.482 L -1.386,-0.574 L -1.345,-0.663 L -1.299,-0.750 L -1.247,-0.833 L -1.190,-0.913 L -1.128,-0.989 L -1.061,-1.061 L -0.989,-1.128 L -0.913,-1.190 L -0.833,-1.247 L -0.750,-1.299 L -0.663,-1.345 L -0.574,-1.386 L -0.482,-1.420 L -0.388,-1.449 L -0.293,-1.471 L -0.196,-1.487 L -0.098,-1.497 L -0.000,-1.500 L 0.098,-1.497 L 0.196,-1.487 L 0.293,-1.471 L 0.388,-1.449 L 0.482,-1.420 L 0.574,-1.386 L 0.663,-1.345 L 0.750,-1.299 L 0.833,-1.247 L 0.913,-1.190 L 0.989,-1.128 L 1.061,-1.061 L 1.128,-0.989 L 1.190,-0.913 L 1.247,-0.833 L 1.299,-0.750 L 1.345,-0.663 L 1.386,-0.574 L 1.420,-0.482 L 1.449,-0.388 L 1.471,-0.293 L 1.487,-0.196 L 1.497,-0.098 L 1.500,-0.000 Z" fill="none" stroke="orange" stroke-width="0.25"/>
    </g>
</svg>
