<svg xmlns="http://www.w3.org/2000/svg" viewBox="-22.0 -22.0 44.0 44.0">
    <path d="M 12.000,0.000 L 11.993,0.419 L 11.971,0.837 L 11.934,1.254 L 11.883,1.670 L 11.818,2.084 L 11.738,2.495 L 11.644,2.903 L 11.535,3.308 L 11.413,3.708 L 11.276,4.104 L 11.126,4.495 L 10.963,4.881 L 10.786,5.260 L 10.595,5.634 L 10.392,6.000 L 10.177,6.359 L 9.948,6.710 L 9.708,7.053 L 9.456,7.388 L 9.193,7.713 L 8.918,8.030 L 8.632,8.336 L 8.336,8.632 L 8.030,8.918 L 7.713,9.193 L 7.388,9.456 L 7.053,9.708 L 6.710,9.948 L 6.359,10.177 L 6.000,10.392 L 5.634,10.595 L 5.260,10.786 L 4.881,10.963 L 4.495,11.126 L 4.104,11.276 L 3.708,11.413 L 3.308,11.535 L 2.903,11.644 L 2.495,11.738 L 2.084,11.818 L 1.670,11.883 L 1.254,11.934 L 0.837,11.971 L 0.419,11.993 L 0.000,12.000 L -0.419,11.993 L -0.837,11.971 L -1.254,11.934 L -1.670,11.883 L -2.084,11.818 L -2.495,11.738 L -2.903,11.644 L -3.308,11.535 L -3.708,11.413 L -4.104,11.276 L -4.495,11.126 L -4.881,10.963 L -5.260,10.786 L -5.634,10.595 L -6.000,10.392 L -6.359,10.177 L -6.710,9.948 L -7.053,9.708 L -7.388,9.456 L -7.713,9.193 L -8.030,8.918 L -8.336,8.632 L -8.632,8.336 L -8.918,8.030 L -9.193,7.713 L -9.456,7.388 L -9.708,7.053 L -9.948,6.710 L -10.177,6.359 L -10.392,6.000 L -10.595,5.634 L -10.786,5.260 L -10.963,4.881 L -11.126,4.495 L -11.276,4.104 L -11.413,3.708 L -11.535,3.308 L -11.644,2.903 L -11.738,2.495 L -11.818,2.084 L -11.883,1.670 L -11.934,1.254 L -11.971,0.837 L -11.993,0.419 L -12.000,0.000 L -11.993,-0.419 L -11.971,-0.837 L -11.934,-1.254 L -11.883,-1.670 L -11.818,-2.084 L -11.738,-2.495 L -11.644,-2.903 L -11.535,-3.308 L -11.413,-3.708 L -11.276,-4.104 L -11.126,-4.495 L -10.963,-4.881 L -10.786,-5.260 L -10.595,-5.634 L -10.392,-6.000 L -10.177,-6.359 L -9.948,-6.710 L -9.708,-7.053 L -9.456,-7.388 L -9.193,-7.713 L -8.918,-8.030 L -8.632,-8.336 L -8.336,-8.632 L -8.030,-8.918 L -7.713,-9.193 L -7.388,-9.456 L -7.053,-9.708 L -6.710,-9.948 L -6.359,-10.177 L -6.000,-10.392 L -5.634,-10.595 L -5.260,-10.786 L -4.881,-10.963 L -4.495,-11.126 L -4.104,-11.276 L -3.708,-11.413 L -3.308,-11.535 L -2.903,-11.644 L -2.495,-11.738 L -2.084,-11.818 L -1.670,-11.883 L -1.254,-11.934 L -0.837,-11.971 L -0.419,-11.993 L -0.000,-12.000 L 0.419,-11.993 L 0.837,-11.971 L 1.254,-11.934 L 1.670,-11.883 L 2.084,-11.818 L 2.495,-11.738 L 2.903,-11.644 L 3.308,-11.535 L 3.708,-11.413 L 4.104,-11.276 L 4.495,-11.126 L 4.881,-10.963 L 5.260,-10.786 L 5.634,-10.595 L 6.000,-10.392 L 6.359,-10.177 L 6.710,-9.948 L 7.053,-9.708 L 7.388,-9.456 L 7.713,-9.193 L 8.030,-8.918 L 8.336,-8.632 L 8.632,-8.336 L 8.918,-8.030 L 9.193,-7.713 L 9.456,-7.388 L 9.708,-7.053 L 9.948,-6.710 L 10.177,-6.359 L 10.392,-6.000 L 10.595,-5.634 L 10.786,-5.260 L 10.963,-4.881 L 11.126,-4.495 L 11.276,-4.104 L 11.413,-3.708 L 11.535,-3.308 L 11.644,-2.903 L 11.738,-2.495 L 11.818,-2.084 L 11.883,-1.670 L 11.934,-1.254 L 11.971,-0.837 L 11.993,-0.419 L 12.000,-0.000 Z" fill="none" stroke="black" stroke-width="0.25"/>
    <path d="M 9.100,0.000 L 9.094,0.318 L 9.078,0.635 L 9.050,0.951 L 9.011,1.266 L 8.962,1.580 L 8.901,1.892 L 8.830,2.201 L 8.747,2.508 L 8.655,2.812 L 8.551,3.112 L 8.437,3.409 L 8.313,3.701 L 8.179,3.989 L 8.035,4.272 L 7.881,4.550 L 7.717,4.822 L 7.544,5.089 L 7.362,5.349 L 7.171,5.603 L 6.971,5.849 L 6.763,6.089 L 6.546,6.321 L 6.321,6.546 L 6.089,6.763 L 5.849,6.971 L 5.603,7.171 L 5.349,7.362 L 5.089,7.544 L 4.822,7.717 L 4.550,7.881 L 4.272,8.035 L 3.989,8.179 L 3.701,8.313 L 3.409,8.437 L 3.112,8.551 L 2.812,8.655 L 2.508,8.747 L 2.201,8.830 L 1.892,8.901 L 1.580,8.962 L 1.266,9.011 L 0.951,9.050 L 0.635,9.078 L 0.318,9.094 L 0.000,9.100 L -0.318,9.094 L -0.635,9.078 L -0.951,9.050 L -1.266,9.011 L -1.580,8.962 L -1.892,8.901 L -2.201,8.830 L -2.508,8.747 L -2.812,8.655 L -3.112,8.551 L -3.409,8.437 L -3.701,8.313 L -3.989,8.179 L -4.272,8.035 L -4.550,7.881 L -4.822,7.717 L -5.089,7.544 L -5.349,7.362 L -5.603,7.171 L -5.849,6.971 L -6.089,6.763 L -6.321,6.546 L -6.546,6.321 L -6.763,6.089 L -6.971,5.849 L -7.171,5.603 L -7.362,5.349 L -7.544,5.089 L -7.717,4.822 L -7.881,4.550 L -8.035,4.272 L -8.179,3.989 L -8.313,3.701 L -8.437,3.409 L -8.551,3.112 L -8.655,2.812 L -8.747,2.508 L -8.830,2.201 L -8.901,1.892 L -8.962,1.580 L -9.011,1.266 L -9.050,0.951 L -9.078,0.635 L -9.094,0.318 L -9.100,0.000 L -9.094,-0.318 L -9.078,-0.635 L -9.050,-0.951 L -9.011,-1.266 L -8.962,-1.580 L -8.901,-1.892 L -8.830,-2.201 L -8.747,-2.508 L -8.655,-2.812 L -8.551,-3.112 L -8.437,-3.409 L -8.313,-3.701 L -8.179,-3.989 L -8.035,-4.272 L -7.881,-4.550 L -7.717,-4.822 L -7.544,-5.089 L -7.362,-5.349 L -7.171,-5.603 L -6.971,-5.849 L -6.763,-6.089 L -6.546,-6.321 L -6.321,-6.546 L -6.089,-6.763 L -5.849,-6.971 L -5.603,-7.171 L -5.349,-7.362 L -5.089,-7.544 L -4.822,-7.717 L -4.550,-7.881 L -4.272,-8.035 L -3.989,-8.179 L -3.701,-8.313 L -3.409,-8.437 L -3.112,-8.551 L -2.812,-8.655 L -2.508,-8.747 L -2.201,-8.830 L -1.892,-8.901 L -1.580,-8.962 L -1.266,-9.011 L -0.951,-9.050 L -0.635,-9.078 L -0.318,-9.094 L -0.000,-9.100 L 0.318,-9.094 L 0.635,-9.078 L 0.951,-9.050 L 1.266,-9.011 L 1.580,-8.962 L 1.892,-8.901 L 2.201,-8.830 L 2.508,-8.747 L 2.812,-8.655 L 3.112,-8.551 L 3.409,-8.437 L 3.701,-8.313 L 3.989,-8.179 L 4.272,-8.035 L 4.550,-7.881 L 4.822,-7.717 L 5.089,-7.544 L 5.349,-7.362 L 5.603,-7.171 L 5.849,-6.971 L 6.089,-6.763 L 6.321,-6.546 L 6.546,-6.321 L 6.763,-6.089 L 6.971,-5.849 L 7.171,-5.603 L 7.362,-5.349 L 7.544,-5.089 L 7.717,-4.822 L 7.881,-4.550 L 8.035,-4.272 L 8.179,-3.989 L 8.313,-3.701 L 8.437,-3.409 L 8.551,-3.112 L 8.655,-2.812 L 8.747,-2.508 L 8.830,-2.201 L 8.901,-1.892 L 8.962,-1.580 L 9.011,-1.266 L 9.050,-0.951 L 9.078,-0.635 L 9.094,-0.318 L 9.100,-0.000 Z" fill="none" stroke="sienna" stroke-width="0.25"/>
    <g transform="translate(0,-16.500)">
        <path d="M 5.000,0.000 L 4.995,0.218 L 4.981,0.436 L 4.957,0.653 L 4.924,0.868 L 4.881,1.082 L 4.830,1.294 L 4.769,1.504 L 4.698,1.710 L 4.619,1.913 L 4.532,2.113 L 4.435,2.309 L 4.330,2.500 L 4.217,2.686 L 4.096,2.868 L 3.967,3.044 L 3.830,3.214 L 3.686,3.378 L 3.536,3.536 L 3.378,3.686 L 3.214,3.830 L 3.044,3.967 L 2.868,4.096 L 2.686,4.217 L 2.500,4.330 L 2.309,4.435 L 2.113,4.532 L 1.913,4.619 L 1.710,4.698 L 1.504,4.769 L 1.294,4.830 L 1.082,4.881 L 0.868,4.924 L 0.653,4.957 L 0.436,4.981 L 0.218,4.995 L 0.000,5.000 L -0.218,4.995 L -0.436,4.981 L -0.653,4.957 L -0.868,4.924 L -1.082,4.881 L -1.294,4.830 L -1.504,4.769 L -1.710,4.698 L -1.913,4.619 L -2.113,4.532 L -2.309,4.435 L -2.500,4.330 L -2.686,4.217 L -2.868,4.096 L -3.044,3.967 L -3.214,3.830 L -3.378,3.686 L -3.536,3.536 L -3.686,3.378 L -3.830,3.214 L -3.967,3.044 L -4.096,2.868 L -4.217,2.686 L -4.330,2.500 L -4.435,2.309 L -4.532,2.113 L -4.619,1.913 L -4.698,1.710 L -4.769,1.504 L -4.830,1.294 L -4.881,1.082 L -4.924,0.868 L -4.957,0.653 L -4.981,0.436 L -4.995,0.218 L -5.000,0.000 L -4.995,-0.218 L -4.981,-0.436 L -4.957,-0.653 L -4.924,-0.868 L -4.881,-1.082 L -4.830,-1.294 L -4.769,-1.504 L -4.698,-1.710 L -4.619,-1.913 L -4.532,-2.113 L -4.435,-2.309 L -4.330,-2.500 L -4.217,-2.686 L -4.096,-2.868 L -3.967,-3.044 L -3.830,-3.214 L -3.686,-3.378 L -3.536,-3.536 L -3.378,-3.686 L -3.214,-3.830 L -3.044,-3.967 L -2.868,-4.096 L -2.686,-4.217 L -2.500,-4.330 L -2.309,-4.435 L -2.113,-4.532 L -1.913,-4.619 L -1.710,-4.698 L -1.504,-4.769 L -1.294,-4.830 L -1.082,-4.881 L -0.868,-4.924 L -0.653,-4.957 L -0.436,-4.981 L -0.218,-4.995 L -0.000,-5.000 L 0.218,-4.995 L 0.436,-4.981 L 0.653,-4.957 L 0.868,-4.924 L 1.082,-4.881 L 1.294,-4.830 L 1.504,-4.769 L 1.710,-4.698 L 1.913,-4.619 L 2.113,-4.532 L 2.309,-4.435 L 2.500,-4.330 L 2.686,-4.217 L 2.868,-4.096 L 3.044,-3.967 L 3.214,-3.830 L 3.378,-3.686 L 3.536,-3.536 L 3.686,-3.378 L 3.830,-3.214 L 3.967,-3.044 L 4.096,-2.868 L 4.217,-2.686 L 4.330,-2.500 L 4.435,-2.309 L 4.532,-2.113 L 4.619,-1.913 L 4.698,-1.710 L 4.769,-1.504 L 4.830,-1.294 L 4.881,-1.082 L 4.924,-0.868 L 4.957,-0.653 L 4.981,-0.436 L 4.995,-0.218 L 5.000,-0.000 Z" fill="none" stroke="darkblue" stroke-width="0.25"/>
        <g transform="translate(3.400,0.000)"><path d="M 0.750,0.000 L 0.746,0.074 L 0.736,0.146 L 0.718,0.218 L 0.693,0.287 L 0.661,0.354 L 0.624,0.417 L 0.580,0.476 L 0.530,0.530 L 0.476,0.580 L 0.417,0.624 L 0.354,0.661 L 0.287,0.693 L 0.218,0.718 L 0.146,0.736 L 0.074,0.746 L 0.000,0.750 L -0.074,0.746 L -0.146,0.736 L -0.218,0.718 L -0.287,0.693 L -0.354,0.661 L -0.417,0.624 L -0.476,0.580 L -0.530,0.530 L -0.580,0.476 L -0.624,0.417 L -0.661,0.354 L -0.693,0.287 L -0.718,0.218 L -0.736,0.146 L -0.746,0.074 L -0.750,0.000 L -0.746,-0.074 L -0.736,-0.146 L -0.718,-0.218 L -0.693,-0.287 L -0.661,-0.354 L -0.624,-0.417 L -0.580,-0.476 L -0.530,-0.530 L -0.476,-0.580 L -0.417,-0.624 L -0.354,-0.661 L -0.287,-0.693 L -0.218,-0.718 L -0.146,-0.736 L -0.074,-0.746 L -0.000,-0.750 L 0.074,-0.746 L 0.146,-0.736 L 0.218,-0.718 L 0.287,-0.693 L 0.354,-0.661 L 0.417,-0.624 L 0.476,-0.580 L 0.530,-0.530 L 0.580,-0.476 L 0.624,-0.417 L 0.661,-0.354 L 0.693,-0.287 L 0.718,-0.218 L 0.736,-0.146 L 0.746,-0.074 L 0.750,-0.000 Z" fill="none" stroke="crimson" stroke-width="0.2"/></g>
        <g transform="translate(2.751,1.998)"><path d="M 0.750,0.000 L 0.746,0.074 L 0.736,0.146 L 0.718,0.218 L 0.693,0.287 L 0.661,0.354 L 0.624,0.417 L 0.580,0.476 L 0.530,0.530 L 0.476,0.580 L 0.417,0.624 L 0.354,0.661 L 0.287,0.693 L 0.218,0.718 L 0.146,0.736 L 0.074,0.746 L 0.000,0.750 L -0.074,0.746 L -0.146,0.736 L -0.218,0.718 L -0.287,0.693 L -0.354,0.661 L -0.417,0.624 L -0.476,0.580 L -0.530,0.530 L -0.580,0.476 L -0.624,0.417 L -0.661,0.354 L -0.693,0.287 L -0.718,0.218 L -0.736,0.146 L -0.746,0.074 L -0.750,0.000 L -0.746,-0.074 L -0.736,-0.146 L -0.718,-0.218 L -0.693,-0.287 L -0.661,-0.354 L -0.624,-0.417 L -0.580,-0.476 L -0.530,-0.530 L -0.476,-0.580 L -0.417,-0.624 L -0.354,-0.661 L -0.287,-0.693 L -0.218,-0.718 L -0.146,-0.736 L -0.074,-0.746 L -0.000,-0.750 L 0.074,-0.746 L 0.146,-0.736 L 0.218,-0.718 L 0.287,-0.693 L 0.354,-0.661 L 0.417,-0.624 L 0.476,-0.580 L 0.530,-0.530 L 0.580,-0.476 L 0.624,-0.417 L 0.661,-0.354 L 0.693,-0.287 L 0.718,-0.218 L 0.736,-0.146 L 0.746,-0.074 L 0.750,-0.000 Z" fill="none" stroke="crimson" stroke-width="0.2"/></g>
        <g transform="translate(1.051,3.234)"><path d="M 0.750,0.000 L 0.746,0.074 L 0.736,0.146 L 0.718,0.218 L 0.693,0.287 L 0.661,0.354 L 0.624,0.417 L 0.580,0.476 L 0.530,0.530 L 0.476,0.580 L 0.417,0.624 L 0.354,0.661 L 0.287,0.693 L 0.218,0.718 L 0.146,0.736 L 0.074,0.746 L 0.000,0.750 L -0.074,0.746 L -0.146,0.736 L -0.218,0.718 L -0.287,0.693 L -0.354,0.661 L -0.417,0.624 L -0.476,0.580 L -0.530,0.530 L -0.580,0.476 L -0.624,0.417 L -0.661,0.354 L -0.693,0.287 L -0.718,0.218 L -0.736,0.146 L -0.746,0.074 L -0.750,0.000 L -0.746,-0.074 L -0.736,-0.146 L -0.718,-0.218 L -0.693,-0.287 L -0.661,-0.354 L -0.624,-0.417 L -0.580,-0.476 L -0.530,-0.530 L -0.476,-0.580 L -0.417,-0.624 L -0.354,-0.661 L -0.287,-0.693 L -0.218,-0.718 L -0.146,-0.736 L -0.074,-0.746 L -0.000,-0.750 L 0.074,-0.746 L 0.146,-0.736 L 0.218,-0.718 L 0.287,-0.693 L 0.354,-0.661 L 0.417,-0.624 L 0.476,-0.580 L 0.530,-0.530 L 0.580,-0.476 L 0.624,-0.417 L 0.661,-0.354 L 0.693,-0.287 L 0.718,-0.218 L 0.736,-0.146 L 0.746,-0.074 L 0.750,-0.000 Z" fill="none" stroke="crimson" stroke-width="0.2"/></g>
        <g transform="translate(-1.051,3.234)"><path d="M 0.750,0.000 L 0.746,0.074 L 0.736,0.146 L 0.718,0.218 L 0.693,0.287 L 0.661,0.354 L 0.624,0.417 L 0.580,0.476 L 0.530,0.530 L 0.476,0.580 L 0.417,0.624 L 0.354,0.661 L 0.287,0.693 L 0.218,0.718 L 0.146,0.736 L 0.074,0.746 L 0.000,0.750 L -0.074,0.746 L -0.146,0.736 L -0.218,0.718 L -0.287,0.693 L -0.354,0.661 L -0.417,0.624 L -0.476,0.580 L -0.530,0.530 L -0.580,0.476 L -0.624,0.417 L -0.661,0.354 L -0.693,0.287 L -0.718,0.218 L -0.736,0.146 L -0.746,0.074 L -0.750,0.000 L -0.746,-0.074 L -0.736,-0.146 L -0.718,-0.218 L -0.693,-0.287 L -0.661,-0.354 L -0.624,-0.417 L -0.580,-0.476 L -0.530,-0.530 L -0.476,-0.580 L -0.417,-0.624 L -0.354,-0.661 L -0.287,-0.693 L -0.218,-0.718 L -0.146,-0.736 L -0.074,-0.746 L -0.000,-0.750 L 0.074,-0.746 L 0.146,-0.736 L 0.218,-0.718 L 0.287,-0.693 L 0.354,-0.661 L 0.417,-0.624 L 0.476,-0.580 L 0.530,-0.530 L 0.580,-0.476 L 0.624,-0.417 L 0.661,-0.354 L 0.693,-0.287 L 0.718,-0.218 L 0.736,-0.146 L 0.746,-0.074 L 0.750,-0.000 Z" fill="none" stroke="crimson" stroke-width="0.2"/></g>
        <g transform="translate(-2.751,1.998)"><path d="M 0.750,0.000 L 0.746,0.074 L 0.736,0.146 L 0.718,0.218 L 0.693,0.287 L 0.661,0.354 L 0.624,0.417 L 0.580,0.476 L 0.530,0.530 L 0.476,0.580 L 0.417,0.624 L 0.354,0.661 L 0.287,0.693 L 0.218,0.718 L 0.146,0.736 L 0.074,0.746 L 0.000,0.750 L -0.074,0.746 L -0.146,0.736 L -0.218,0.718 L -0.287,0.693 L -0.354,0.661 L -0.417,0.624 L -0.476,0.580 L -0.530,0.530 L -0.580,0.476 L -0.624,0.417 L -0.661,0.354 L -0.693,0.287 L -0.718,0.218 L -0.736,0.146 L -0.746,0.074 L -0.750,0.000 L -0.746,-0.074 L -0.736,-0.146 L -0.718,-0.218 L -0.693,-0.287 L -0.661,-0.354 L -0.624,-0.417 L -0.580,-0.476 L -0.530,-0.530 L -0.476,-0.580 L -0.417,-0.624 L -0.354,-0.661 L -0.287,-0.693 L -0.218,-0.718 L -0.146,-0.736 L -0.074,-0.746 L -0.000,-0.750 L 0.074,-0.746 L 0.146,-0.736 L 0.218,-0.718 L 0.287,-0.693 L 0.354,-0.661 L 0.417,-0.624 L 0.476,-0.580 L 0.530,-0.530 L 0.580,-0.476 L 0.624,-0.417 L 0.661,-0.354 L 0.693,-0.287 L 0.718,-0.218 L 0.736,-0.146 L 0.746,-0.074 L 0.750,-0.000 Z" fill="none" stroke="crimson" stroke-width="0.2"/></g>
        <g transform="translate(-3.400,0.000)"><path d="M 0.750,0.000 L 0.746,0.074 L 0.736,0.146 L 0.718,0.218 L 0.693,0.287 L 0.661,0.354 L 0.624,0.417 L 0.580,0.476 L 0.530,0.530 L 0.476,0.580 L 0.417,0.624 L 0.354,0.661 L 0.287,0.693 L 0.218,0.718 L 0.146,0.736 L 0.074,0.746 L 0.000,0.750 L -0.074,0.746 L -0.146,0.736 L -0.218,0.718 L -0.287,0.693 L -0.354,0.661 L -0.417,0.624 L -0.476,0.580 L -0.530,0.530 L -0.580,0.476 L -0.624,0.417 L -0.661,0.354 L -0.693,0.287 L -0.718,0.218 L -0.736,0.146 L -0.746,0.074 L -0.750,0.000 L -0.746,-0.074 L -0.736,-0.146 L -0.718,-0.218 L -0.693,-0.287 L -0.661,-0.354 L -0.624,-0.417 L -0.580,-0.476 L -0.530,-0.530 L -0.476,-0.580 L -0.417,-0.624 L -0.354,-0.661 L -0.287,-0.693 L -0.218,-0.718 L -0.146,-0.736 L -0.074,-0.746 L -0.000,-0.750 L 0.074,-0.746 L 0.146,-0.736 L 0.218,-0.718 L 0.287,-0.693 L 0.354,-0.661 L 0.417,-0.624 L 0.476,-0.580 L 0.530,-0.530 L 0.580,-0.476 L 0.624,-0.417 L 0.661,-0.354 L 0.693,-0.287 L 0.718,-0.218 L 0.736,-0.146 L 0.746,-0.074 L 0.750,-0.000 Z" fill="none" stroke="crimson" stroke-width="0.2"/></g>
        <g transform="translate(-2.751,-1.998)"><path d="M 0.750,0.000 L 0.746,0.074 L 0.736,0.146 L 0.718,0.218 L 0.693,0.287 L 0.661,0.354 L 0.624,0.417 L 0.580,0.476 L 0.530,0.530 L 0.476,0.580 L 0.417,0.624 L 0.354,0.661 L 0.287,0.693 L 0.218,0.718 L 0.146,0.736 L 0.074,0.746 L 0.000,0.750 L -0.074,0.746 L -0.146,0.736 L -0.218,0.718 L -0.287,0.693 L -0.354,0.661 L -0.417,0.624 L -0.476,0.580 L -0.530,0.530 L -0.580,0.476 L -0.624,0.417 L -0.661,0.354 L -0.693,0.287 L -0.718,0.218 L -0.736,0.146 L -0.746,0.074 L -0.750,0.000 L -0.746,-0.074 L -0.736,-0.146 L -0.718,-0.218 L -0.693,-0.287 L -0.661,-0.354 L -0.624,-0.417 L -0.580,-0.476 L -0.530,-0.530 L -0.476,-0.580 L -0.417,-0.624 L -0.354,-0.661 L -0.287,-0.693 L -0.218,-0.718 L -0.146,-0.736 L -0.074,-0.746 L -0.000,-0.750 L 0.074,-0.746 L 0.146,-0.736 L 0.218,-0.718 L 0.287,-0.693 L 0.354,-0.661 L 0.417,-0.624 L 0.476,-0.580 L 0.530,-0.530 L 0.580,-0.476 L 0.624,-0.417 L 0.661,-0.354 L 0.693,-0.287 L 0.718,-0.218 L 0.736,-0.146 L 0.746,-0.074 L 0.750,-0.000 Z" fill="none" stroke="crimson" stroke-width="0.2"/></g>
        <g transform="translate(-1.051,-3.234)"><path d="M 0.750,0.000 L 0.746,0.074 L 0.736,0.146 L 0.718,0.218 L 0.693,0.287 L 0.661,0.354 L 0.624,0.417 L 0.580,0.476 L 0.530,0.530 L 0.476,0.580 L 0.417,0.624 L 0.354,0.661 L 0.287,0.693 L 0.218,0.718 L 0.146,0.736 L 0.074,0.746 L 0.000,0.750 L -0.074,0.746 L -0.146,0.736 L -0.218,0.718 L -0.287,0.693 L -0.354,0.661 L -0.417,0.624 L -0.476,0.580 L -0.530,0.530 L -0.580,0.476 L -0.624,0.417 L -0.661,0.354 L -0.693,0.287 L -0.718,0.218 L -0.736,0.146 L -0.746,0.074 L -0.750,0.000 L -0.746,-0.074 L -0.736,-0.146 L -0.718,-0.218 L -0.693,-0.287 L -0.661,-0.354 L -0.624,-0.417 L -0.580,-0.476 L -0.530,-0.530 L -0.476,-0.580 L -0.417,-0.624 L -0.354,-0.661 L -0.287,-0.693 L -0.218,-0.718 L -0.146,-0.736 L -0.074,-0.746 L -0.000,-0.750 L 0.074,-0.746 L 0.146,-0.736 L 0.218,-0.718 L 0.287,-0.693 L 0.354,-0.661 L 0.417,-0.624 L 0.476,-0.580 L 0.530,-0.530 L 0.580,-0.476 L 0.624,-0.417 L 0.661,-0.354 L 0.693,-0.287 L 0.718,-0.218 L 0.736,-0.146 L 0.746,-0.074 L 0.750,-0.000 Z" fill="none" stroke="crimson" stroke-width="0.2"/></g>
        <g transform="translate(1.051,-3.234)"><path d="M 0.750,0.000 L 0.746,0.074 L 0.736,0.146 L 0.718,0.218 L 0.693,0.287 L 0.661,0.354 L 0.624,0.417 L 0.580,0.476 L 0.530,0.530 L 0.476,0.580 L 0.417,0.624 L 0.354,0.661 L 0.287,0.693 L 0.218,0.718 L 0.146,0.736 L 0.074,0.746 L 0.000,0.750 L -0.074,0.746 L -0.146,0.736 L -0.218,0.718 L -0.287,0.693 L -0.354,0.661 L -0.417,0.624 L -0.476,0.580 L -0.530,0.530 L -0.580,0.476 L -0.624,0.417 L -0.661,0.354 L -0.693,0.287 L -0.718,0.218 L -0.736,0.146 L -0.746,0.074 L -0.750,0.000 L -0.746,-0.074 L -0.736,-0.146 L -0.718,-0.218 L -0.693,-0.287 L -0.661,-0.354 L -0.624,-0.417 L -0.580,-0.476 L -0.530,-0.530 L -0.476,-0.580 L -0.417,-0.624 L -0.354,-0.661 L -0.287,-0.693 L -0.218,-0.718 L -0.146,-0.736 L -0.074,-0.746 L -0.000,-0.750 L 0.074,-0.746 L 0.146,-0.736 L 0.218,-0.718 L 0.287,-0.693 L 0.354,-0.661 L 0.417,-0.624 L 0.476,-0.580 L 0.530,-0.530 L 0.580,-0.476 L 0.624,-0.417 L 0.661,-0.354 L 0.693,-0.287 L 0.718,-0.218 L 0.736,-0.146 L 0.746,-0.074 L 0.750,-0.000 Z" fill="none" stroke="crimson" stroke-width="0.2"/></g>
        <g transform="translate(2.751,-1.998)"><path d="M 0.750,0.000 L 0.746,0.074 L 0.736,0.146 L 0.718,0.218 L 0.693,0.287 L 0.661,0.354 L 0.624,0.417 L 0.580,0.476 L 0.530,0.530 L 0.476,0.580 L 0.417,0.624 L 0.354,0.661 L 0.287,0.693 L 0.218,0.718 L 0.146,0.736 L 0.074,0.746 L 0.000,0.750 L -0.074,0.746 L -0.146,0.736 L -0.218,0.718 L -0.287,0.693 L -0.354,0.661 L -0.417,0.624 L -0.476,0.580 L -0.530,0.530 L -0.580,0.476 L -0.624,0.417 L -0.661,0.354 L -0.693,0.287 L -0.718,0.218 L -0.736,0.146 L -0.746,0.074 L -0.750,0.000 L -0.746,-0.074 L -0.736,-0.146 L -0.718,-0.218 L -0.693,-0.287 L -0.661,-0.354 L -0.624,-0.417 L -0.580,-0.476 L -0.530,-0.530 L -0.476,-0.580 L -0.417,-0.624 L -0.354,-0.661 L -0.287,-0.693 L -0.218,-0.718 L -0.146,-0.736 L -0.074,-0.746 L -0.000,-0.750 L 0.074,-0.746 L 0.146,-0.736 L 0.218,-0.718 L 0.287,-0.693 L 0.354,-0.661 L 0.417,-0.624 L 0.476,-0.580 L 0.530,-0.530 L 0.580,-0.476 L 0.624,-0.417 L 0.661,-0.354 L 0.693,-0.287 L 0.718,-0.218 L 0.736,-0.146 L 0.746,-0.074 L 0.750,-0.000 Z" fill="none" stroke="crimson" stroke-width="0.2"/></g>
    </g>
</svg>
