<svg xmlns="http://www.w3.org/2000/svg" viewBox="-22.0 -22.0 44.0 44.0">
  <path d="M 12.000,0.000 L 11.989,0.523 L 11.954,1.046 L 11.897,1.566 L 11.818,2.084 L 11.716,2.597 L 11.591,3.106 L 11.445,3.608 L 11.276,4.104 L 11.087,4.592 L 10.876,5.071 L 10.644,5.541 L 10.392,6.000 L 10.121,6.448 L 9.830,6.883 L 9.520,7.305 L 9.193,7.713 L 8.847,8.107 L 8.485,8.485 L 8.107,8.847 L 7.713,9.193 L 7.305,9.520 L 6.883,9.830 L 6.448,10.121 L 6.000,10.392 L 5.541,10.644 L 5.071,10.876 L 4.592,11.087 L 4.104,11.276 L 3.608,11.445 L 3.106,11.591 L 2.597,11.716 L 2.084,11.818 L 1.566,11.897 L 1.046,11.954 L 0.523,11.989 L 0.000,12.000 L -0.523,11.989 L -1.046,11.954 L -1.566,11.897 L -2.084,11.818 L -2.597,11.716 L -3.106,11.591 L -3.608,11.445 L -4.104,11.276 L -4.592,11.087 L -5.071,10.876 L -5.541,10.644 L -6.000,10.392 L -6.448,10.121 L -6.883,9.830 L -7.305,9.520 L -7.713,9.193 L -8.107,8.847 L -8.485,8.485 L -8.847,8.107 L -9.193,7.713 L -9.520,7.305 L -9.830,6.883 L -10.121,6.448 L -10.392,6.000 L -10.644,5.541 L -10.876,5.071 L -11.087,4.592 L -11.276,4.104 L -11.445,3.608 L -11.591,3.106 L -11.716,2.597 L -11.818,2.084 L -11.897,1.566 L -11.954,1.046 L -11.989,0.523 L -12.000,0.000 L -11.989,-0.523 L -11.954,-1.046 L -11.897,-1.566 L -11.818,-2.084 L -11.716,-2.597 L -11.591,-3.106 L -11.445,-3.608 L -11.276,-4.104 L -11.087,-4.592 L -10.876,-5.071 L -10.644,-5.541 L -10.392,-6.000 L -10.121,-6.448 L -9.830,-6.883 L -9.520,-7.305 L -9.193,-7.713 L -8.847,-8.107 L -8.485,-8.485 L -8.107,-8.847 L -7.713,-9.193 L -7.305,-9.520 L -6.883,-9.830 L -6.448,-10.121 L -6.000,-10.392 L -5.541,-10.644 L -5.071,-10.876 L -4.592,-11.087 L -4.104,-11.276 L -3.608,-11.445 L -3.106,-11.591 L -2.597,-11.716 L -2.084,-11.818 L -1.566,-11.897 L -1.046,-11.954 L -0.523,-11.989 L -0.000,-12.000 L 0.523,-11.989 L 1.046,-11.954 L 1.566,-11.897 L 2.084,-11.818 L 2.597,-11.716 L 3.106,-11.591 L 3.608,-11.445 L 4.104,-11.276 L 4.592,-11.087 L 5.071,-10.876 L 5.541,-10.644 L 6.000,-10.392 L 6.448,-10.121 L 6.883,-9.830 L 7.305,-9.520 L 7.713,-9.193 L 8.107,-8.847 L 8.485,-8.485 L 8.847,-8.107 L 9.193,-7.713 L 9.520,-7.305 L 9.830,-6.883 L 10.121,-6.448 L 10.392,-6.000 L 10.644,-5.541 L 10.876,-5.071 L 11.087,-4.592 L 11.276,-4.104 L 11.445,-3.608 L 11.591,-3.106 L 11.716,-2.597 L 11.818,-2.084 L 11.897,-1.566 L 11.954,-1.046 L 11.989,-0.523 L 12.000,-0.000 Z" fill="none" stroke="black" stroke-width="0.25"/>
  <path d="M 9.100,0.000 L 9.091,0.397 L 9.065,0.793 L 9.022,1.188 L 8.962,1.580 L 8.884,1.970 L 8.790,2.355 L 8.679,2.736 L 8.551,3.112 L 8.407,3.482 L 8.247,3.846 L 8.072,4.202 L 7.881,4.550 L 7.675,4.889 L 7.454,5.220 L 7.220,5.540 L 6.971,5.849 L 6.709,6.148 L 6.435,6.435 L 6.148,6.709 L 5.849,6.971 L 5.540,7.220 L 5.220,7.454 L 4.889,7.675 L 4.550,7.881 L 4.202,8.072 L 3.846,8.247 L 3.482,8.407 L 3.112,8.551 L 2.736,8.679 L 2.355,8.790 L 1.970,8.884 L 1.580,8.962 L 1.188,9.022 L 0.793,9.065 L 0.397,9.091 L 0.000,9.100 L -0.397,9.091 L -0.793,9.065 L -1.188,9.022 L -1.580,8.962 L -1.970,8.884 L -2.355,8.790 L -2.736,8.679 L -3.112,8.551 L -3.482,8.407 L -3.846,8.247 L -4.202,8.072 L -4.550,7.881 L -4.889,7.675 L -5.220,7.454 L -5.540,7.220 L -5.849,6.971 L -6.148,6.709 L -6.435,6.435 L -6.709,6.148 L -6.971,5.849 L -7.220,5.540 L -7.454,5.220 L -7.675,4.889 L -7.881,4.550 L -8.072,4.202 L -8.247,3.846 L -8.407,3.482 L -8.551,3.112 L -8.679,2.736 L -8.790,2.355 L -8.884,1.970 L -8.962,1.580 L -9.022,1.188 L -9.065,0.793 L -9.091,0.397 L -9.100,0.000 L -9.091,-0.397 L -9.065,-0.793 L -9.022,-1.188 L -8.962,-1.580 L -8.884,-1.970 L -8.790,-2.355 L -8.679,-2.736 L -8.551,-3.112 L -8.407,-3.482 L -8.247,-3.846 L -8.072,-4.202 L -7.881,-4.550 L -7.675,-4.889 L -7.454,-5.220 L -7.220,-5.540 L -6.971,-5.849 L -6.709,-6.148 L -6.435,-6.435 L -6.148,-6.709 L -5.849,-6.971 L -5.540,-7.220 L -5.220,-7.454 L -4.889,-7.675 L -4.550,-7.881 L -4.202,-8.072 L -3.846,-8.247 L -3.482,-8.407 L -3.112,-8.551 L -2.736,-8.679 L -2.355,-8.790 L -1.970,-8.884 L -1.580,-8.962 L -1.188,-9.022 L -0.793,-9.065 L -0.397,-9.091 L -0.000,-9.100 L 0.397,-9.091 L 0.793,-9.065 L 1.188,-9.022 L 1.580,-8.962 L 1.970,-8.884 L 2.355,-8.790 L 2.736,-8.679 L 3.112,-8.551 L 3.482,-8.407 L 3.846,-8.247 L 4.202,-8.072 L 4.550,-7.881 L 4.889,-7.675 L 5.220,-7.454 L 5.540,-7.220 L 5.849,-6.971 L 6.148,-6.709 L 6.435,-6.435 L 6.709,-6.148 L 6.971,-5.849 L 7.220,-5.540 L 7.454,-5.220 L 7.675,-4.889 L 7.881,-4.550 L 8.072,-4.202 L 8.247,-3.846 L 8.407,-3.482 L 8.551,-3.112 L 8.679,-2.736 L 8.790,-2.355 L 8.884,-1.970 L 8.962,-1.580 L 9.022,-1.188 L 9.065,-0.793 L 9.091,-0.397 L 9.100,-0.000 Z" fill="none" stroke="red" stroke-width="0.25"/>
</svg>
