<svg xmlns="http://www.w3.org/2000/svg" viewBox="-18.0 -18.0 36.0 36.0">
    <path d="M 9.000,0.000 L 8.991,0.393 L 8.966,0.784 L 8.923,1.175 L 8.863,1.563 L 8.787,1.948 L 8.693,2.329 L 8.583,2.706 L 8.457,3.078 L 8.315,3.444 L 8.157,3.804 L 7.983,4.156 L 7.794,4.500 L 7.591,4.836 L 7.372,5.162 L 7.140,5.479 L 6.894,5.785 L 6.635,6.080 L 6.364,6.364 L 6.080,6.635 L 5.785,6.894 L 5.479,7.140 L 5.162,7.372 L 4.836,7.591 L 4.500,7.794 L 4.156,7.983 L 3.804,8.157 L 3.444,8.315 L 3.078,8.457 L 2.706,8.583 L 2.329,8.693 L 1.948,8.787 L 1.563,8.863 L 1.175,8.923 L 0.784,8.966 L 0.393,8.991 L 0.000,9.000 L -0.393,8.991 L -0.784,8.966 L -1.175,8.923 L -1.563,8.863 L -1.948,8.787 L -2.329,8.693 L -2.706,8.583 L -3.078,8.457 L -3.444,8.315 L -3.804,8.157 L -4.156,7.983 L -4.500,7.794 L -4.836,7.591 L -5.162,7.372 L -5.479,7.140 L -5.785,6.894 L -6.080,6.635 L -6.364,6.364 L -6.635,6.080 L -6.894,5.785 L -7.140,5.479 L -7.372,5.162 L -7.591,4.836 L -7.794,4.500 L -7.983,4.156 L -8.157,3.804 L -8.315,3.444 L -8.457,3.078 L -8.583,2.706 L -8.693,2.329 L -8.787,1.948 L -8.863,1.563 L -8.923,1.175 L -8.966,0.784 L -8.991,0.393 L -9.000,0.000 L -8.991,-0.393 L -8.966,-0.784 L -8.923,-1.175 L -8.863,-1.563 L -8.787,-1.948 L -8.693,-2.329 L -8.583,-2.706 L -8.457,-3.078 L -8.315,-3.444 L -8.157,-3.804 L -7.983,-4.156 L -7.794,-4.500 L -7.591,-4.836 L -7.372,-5.162 L -7.140,-5.479 L -6.894,-5.785 L -6.635,-6.080 L -6.364,-6.364 L -6.080,-6.635 L -5.785,-6.894 L -5.479,-7.140 L -5.162,-7.372 L -4.836,-7.591 L -4.500,-7.794 L -4.156,-7.983 L -3.804,-8.157 L -3.444,-8.315 L -3.078,-8.457 L -2.706,-8.583 L -2.329,-8.693 L -1.948,-8.787 L -1.563,-8.863 L -1.175,-8.923 L -0.784,-8.966 L -0.393,-8.991 L -0.000,-9.000 L 0.393,-8.991 L 0.784,-8.966 L 1.175,-8.923 L 1.563,-8.863 L 1.948,-8.787 L 2.329,-8.693 L 2.706,-8.583 L 3.078,-8.457 L 3.444,-8.315 L 3.804,-8.157 L 4.156,-7.983 L 4.500,-7.794 L 4.836,-7.591 L 5.162,-7.372 L 5.479,-7.140 L 5.785,-6.894 L 6.080,-6.635 L 6.364,-6.364 L 6.635,-6.080 L 6.894,-5.785 L 7.140,-5.479 L 7.372,-5.162 L 7.591,-4.836 L 7.794,-4.500 L 7.983,-4.156 L 8.157,-3.804 L 8.315,-3.444 L 8.457,-3.078 L 8.583,-2.706 L 8.693,-2.329 L 8.787,-1.948 L 8.863,-1.563 L 8.923,-1.175 L 8.966,-0.784 L 8.991,-0.393 L 9.000,-0.000 Z" fill="none" stroke="black" stroke-width="0.25"/>
    <path d="M 7.000,0.000 L 6.993,0.305 L 6.973,0.610 L 6.940,0.914 L 6.894,1.216 L 6.834,1.515 L 6.761,1.812 L 6.676,2.105 L 6.578,2.394 L 6.467,2.679 L 6.344,2.958 L 6.209,3.232 L 6.062,3.500 L 5.904,3.761 L 5.734,4.015 L 5.553,4.261 L 5.362,4.500 L 5.161,4.729 L 4.950,4.950 L 4.729,5.161 L 4.500,5.362 L 4.261,5.553 L 4.015,5.734 L 3.761,5.904 L 3.500,6.062 L 3.232,6.209 L 2.958,6.344 L 2.679,6.467 L 2.394,6.578 L 2.105,6.676 L 1.812,6.761 L 1.515,6.834 L 1.216,6.894 L 0.914,6.940 L 0.610,6.973 L 0.305,6.993 L 0.000,7.000 L -0.305,6.993 L -0.610,6.973 L -0.914,6.940 L -1.216,6.894 L -1.515,6.834 L -1.812,6.761 L -2.105,6.676 L -2.394,6.578 L -2.679,6.467 L -2.958,6.344 L -3.232,6.209 L -3.500,6.062 L -3.761,5.904 L -4.015,5.734 L -4.261,5.553 L -4.500,5.362 L -4.729,5.161 L -4.950,4.950 L -5.161,4.729 L -5.362,4.500 L -5.553,4.261 L -5.734,4.015 L -5.904,3.761 L -6.062,3.500 L -6.209,3.232 L -6.344,2.958 L -6.467,2.679 L -6.578,2.394 L -6.676,2.105 L -6.761,1.812 L -6.834,1.515 L -6.894,1.216 L -6.940,0.914 L -6.973,0.610 L -6.993,0.305 L -7.000,0.000 L -6.993,-0.305 L -6.973,-0.610 L -6.940,-0.914 L -6.894,-1.216 L -6.834,-1.515 L -6.761,-1.812 L -6.676,-2.105 L -6.578,-2.394 L -6.467,-2.679 L -6.344,-2.958 L -6.209,-3.232 L -6.062,-3.500 L -5.904,-3.761 L -5.734,-4.015 L -5.553,-4.261 L -5.362,-4.500 L -5.161,-4.729 L -4.950,-4.950 L -4.729,-5.161 L -4.500,-5.362 L -4.261,-5.553 L -4.015,-5.734 L -3.761,-5.904 L -3.500,-6.062 L -3.232,-6.209 L -2.958,-6.344 L -2.679,-6.467 L -2.394,-6.578 L -2.105,-6.676 L -1.812,-6.761 L -1.515,-6.834 L -1.216,-6.894 L -0.914,-6.940 L -0.610,-6.973 L -0.305,-6.993 L -0.000,-7.000 L 0.305,-6.993 L 0.610,-6.973 L 0.914,-6.940 L 1.216,-6.894 L 1.515,-6.834 L 1.812,-6.761 L 2.105,-6.676 L 2.394,-6.578 L 2.679,-6.467 L 2.958,-6.344 L 3.232,-6.209 L 3.500,-6.062 L 3.761,-5.904 L 4.015,-5.734 L 4.261,-5.553 L 4.500,-5.362 L 4.729,-5.161 L 4.950,-4.950 L 5.161,-4.729 L 5.362,-4.500 L 5.553,-4.261 L 5.734,-4.015 L 5.904,-3.761 L 6.062,-3.500 L 6.209,-3.232 L 6.344,-2.958 L 6.467,-2.679 L 6.578,-2.394 L 6.676,-2.105 L 6.761,-1.812 L 6.834,-1.515 L 6.894,-1.216 L 6.940,-0.914 L 6.973,-0.610 L 6.993,-0.305 L 7.000,-0.000 Z" fill="none" stroke="forestgreen" stroke-width="0.25"/>
</svg>
