<svg xmlns="http://www.w3.org/2000/svg" viewBox="-23.0 -23.0 46.0 46.0">
  <path d="M 8.000,4.160 L 7.980,4.465 L 7.920,4.766 L 7.822,5.055 L 7.686,5.330 L 7.516,5.585 L 7.315,5.815 L 7.085,6.016 L 6.830,6.186 L 6.555,6.322 L 6.266,6.420 L 5.965,6.480 L 5.660,6.500 L -5.660,6.500 L -5.965,6.480 L -6.266,6.420 L -6.555,6.322 L -6.830,6.186 L -7.085,6.016 L -7.315,5.815 L -7.516,5.585 L -7.686,5.330 L -7.822,5.055 L -7.920,4.766 L -7.980,4.465 L -8.000,4.160 L -8.000,-4.160 L -7.980,-4.465 L -7.920,-4.766 L -7.822,-5.055 L -7.686,-5.330 L -7.516,-5.585 L -7.315,-5.815 L -7.085,-6.016 L -6.830,-6.186 L -6.555,-6.322 L -6.266,-6.420 L -5.965,-6.480 L -5.660,-6.500 L 5.660,-6.500 L 5.965,-6.480 L 6.266,-6.420 L 6.555,-6.322 L 6.830,-6.186 L 7.085,-6.016 L 7.315,-5.815 L 7.516,-5.585 L 7.686,-5.330 L 7.822,-5.055 L 7.920,-4.766 L 7.980,-4.465 L 8.000,-4.160 Z" fill="none" stroke="black" stroke-width="0.25"/>
  <path d="M 9.500,0.000 L 9.491,0.414 L 9.464,0.828 L 9.419,1.240 L 9.356,1.650 L 9.275,2.056 L 9.176,2.459 L 9.060,2.857 L 8.927,3.249 L 8.777,3.635 L 8.610,4.015 L 8.427,4.387 L 8.227,4.750 L 8.012,5.104 L 7.782,5.449 L 7.537,5.783 L 7.277,6.106 L 7.004,6.418 L 6.718,6.718 L 6.418,7.004 L 6.106,7.277 L 5.783,7.537 L 5.449,7.782 L 5.104,8.012 L 4.750,8.227 L 4.387,8.427 L 4.015,8.610 L 3.635,8.777 L 3.249,8.927 L 2.857,9.060 L 2.459,9.176 L 2.056,9.275 L 1.650,9.356 L 1.240,9.419 L 0.828,9.464 L 0.414,9.491 L 0.000,9.500 L -0.414,9.491 L -0.828,9.464 L -1.240,9.419 L -1.650,9.356 L -2.056,9.275 L -2.459,9.176 L -2.857,9.060 L -3.249,8.927 L -3.635,8.777 L -4.015,8.610 L -4.387,8.427 L -4.750,8.227 L -5.104,8.012 L -5.449,7.782 L -5.783,7.537 L -6.106,7.277 L -6.418,7.004 L -6.718,6.718 L -7.004,6.418 L -7.277,6.106 L -7.537,5.783 L -7.782,5.449 L -8.012,5.104 L -8.227,4.750 L -8.427,4.387 L -8.610,4.015 L -8.777,3.635 L -8.927,3.249 L -9.060,2.857 L -9.176,2.459 L -9.275,2.056 L -9.356,1.650 L -9.419,1.240 L -9.464,0.828 L -9.491,0.414 L -9.500,0.000 L -9.491,-0.414 L -9.464,-0.828 L -9.419,-1.240 L -9.356,-1.650 L -9.275,-2.056 L -9.176,-2.459 L -9.060,-2.857 L -8.927,-3.249 L -8.777,-3.635 L -8.610,-4.015 L -8.427,-4.387 L -8.227,-4.750 L -8.012,-5.104 L -7.782,-5.449 L -7.537,-5.783 L -7.277,-6.106 L -7.004,-6.418 L -6.718,-6.718 L -6.418,-7.004 L -6.106,-7.277 L -5.783,-7.537 L -5.449,-7.782 L -5.104,-8.012 L -4.750,-8.227 L -4.387,-8.427 L -4.015,-8.610 L -3.635,-8.777 L -3.249,-8.927 L -2.857,-9.060 L -2.459,-9.176 L -2.056,-9.275 L -1.650,-9.356 L -1.240,-9.419 L -0.828,-9.464 L -0.414,-9.491 L -0.000,-9.500 L 0.414,-9.491 L 0.828,-9.464 L 1.240,-9.419 L 1.650,-9.356 L 2.056,-9.275 L 2.459,-9.176 L 2.857,-9.060 L 3.249,-8.927 L 3.635,-8.777 L 4.015,-8.610 L 4.387,-8.427 L 4.750,-8.227 L 5.104,-8.012 L 5.449,-7.782 L 5.783,-7.537 L 6.106,-7.277 L 6.418,-7.004 L 6.718,-6.718 L 7.004,-6.418 L 7.277,-6.106 L 7.537,-5.783 L 7.782,-5.449 L 8.012,-5.104 L 8.227,-4.750 L 8.427,-4.387 L 8.610,-4.015 L 8.777,-3.635 L 8.927,-3.249 L 9.060,-2.857 L 9.176,-2.459 L 9.275,-2.056 L 9.356,-1.650 L 9.419,-1.240 L 9.464,-0.828 L 9.491,-0.414 L 9.500,-0.000 Z" fill="none" stroke="purple" stroke-width="0.25"/>
</svg>
