<svg xmlns="http://www.w3.org/2000/svg" viewBox="-14.0 -14.0 28.0 28.0">
    <g transform="translate(-4.500,0)">
        <path d="M 5.000,0.000 L 4.995,0.218 L 4.981,0.436 L 4.957,0.653 L 4.924,0.868 L 4.881,1.082 L 4.830,1.294 L 4.769,1.504 L 4.698,1.710 L 4.619,1.913 L 4.532,2.113 L 4.435,2.309 L 4.330,2.500 L 4.217,2.686 L 4.096,2.868 L 3.967,3.044 L 3.830,3.214 L 3.686,3.378 L 3.536,3.536 L 3.378,3.686 L 3.214,3.830 L 3.044,3.967 L 2.868,4.096 L 2.686,4.217 L 2.500,4.330 L 2.309,4.435 L 2.113,4.532 L 1.913,4.619 L 1.710,4.698 L 1.504,4.769 L 1.294,4.830 L 1.082,4.881 L 0.868,4.924 L 0.653,4.957 L 0.436,4.981 L 0.218,4.995 L 0.000,5.000 L -0.218,4.995 L -0.436,4.981 L -0.653,4.957 L -0.868,4.924 L -1.082,4.881 L -1.294,4.830 L -1.504,4.769 L -1.710,4.698 L -1.913,4.619 L -2.113,4.532 L -2.309,4.435 L -2.500,4.330 L -2.686,4.217 L -2.868,4.096 L -3.044,3.967 L -3.214,3.830 L -3.378,3.686 L -3.536,3.536 L -3.686,3.378 L -3.830,3.214 L -3.967,3.044 L -4.096,2.868 L -4.217,2.686 L -4.330,2.500 L -4.435,2.309 L -4.532,2.113 L -4.619,1.913 L -4.698,1.710 L -4.769,1.504 L -4.830,1.294 L -4.881,1.082 L -4.924,0.868 L -4.957,0.653 L -4.981,0.436 L -4.995,0.218 L -5.000,0.000 L -4.995,-0.218 L -4.981,-0.436 L -4.957,-0.653 L -4.924,-0.868 L -4.881,-1.082 L -4.830,-1.294 L -4.769,-1.504 L -4.698,-1.710 L -4.619,-1.913 L -4.532,-2.113 L -4.435,-2.309 L -4.330,-2.500 L -4.217,-2.686 L -4.096,-2.868 L -3.967,-3.044 L -3.830,-3.214 L -3.686,-3.378 L -3.536,-3.536 L -3.378,-3.686 L -3.214,-3.830 L -3.044,-3.967 L -2.868,-4.096 L -2.686,-4.217 L -2.500,-4.330 L -2.309,-4.435 L -2.113,-4.532 L -1.913,-4.619 L -1.710,-4.698 L -1.504,-4.769 L -1.294,-4.830 L -1.082,-4.881 L -0.868,-4.924 L -0.653,-4.957 L -0.436,-4.981 L -0.218,-4.995 L -0.000,-5.000 L 0.218,-4.995 L 0.436,-4.981 L 0.653,-4.957 L 0.868,-4.924 L 1.082,-4.881 L 1.294,-4.830 L 1.504,-4.769 L 1.710,-4.698 L 1.913,-4.619 L 2.113,-4.532 L 2.309,-4.435 L 2.500,-4.330 L 2.686,-4.217 L 2.868,-4.096 L 3.044,-3.967 L 3.214,-3.830 L 3.378,-3.686 L 3.536,-3.536 L 3.686,-3.378 L 3.830,-3.214 L 3.967,-3.044 L 4.096,-2.868 L 4.217,-2.686 L 4.330,-2.500 L 4.435,-2.309 L 4.532,-2.113 L 4.619,-1.913 L 4.698,-1.710 L 4.769,-1.504 L 4.830,-1.294 L 4.881,-1.082 L 4.924,-0.868 L 4.957,-0.653 L 4.981,-0.436 L 4.995,-0.218 L 5.000,-0.000 Z" fill="none" stroke="black" stroke-width="0.25"/>
        <path d="M 0.450,0.000 L 0.449,0.029 L 0.446,0.059 L 0.441,0.088 L 0.435,0.116 L 0.426,0.145 L 0.416,0.172 L 0.404,0.199 L 0.390,0.225 L 0.374,0.250 L 0.357,0.274 L 0.338,0.297 L 0.318,0.318 L 0.297,0.338 L 0.274,0.357 L 0.250,0.374 L 0.225,0.390 L 0.199,0.404 L 0.172,0.416 L 0.145,0.426 L 0.116,0.435 L 0.088,0.441 L 0.059,0.446 L 0.029,0.449 L 0.000,0.450 L -0.029,0.449 L -0.059,0.446 L -0.088,0.441 L -0.116,0.435 L -0.145,0.426 L -0.172,0.416 L -0.199,0.404 L -0.225,0.390 L -0.250,0.374 L -0.274,0.357 L -0.297,0.338 L -0.318,0.318 L -0.338,0.297 L -0.357,0.274 L -0.374,0.250 L -0.390,0.225 L -0.404,0.199 L -0.416,0.172 L -0.426,0.145 L -0.435,0.116 L -0.441,0.088 L -0.446,0.059 L -0.449,0.029 L -0.450,0.000 L -0.449,-0.029 L -0.446,-0.059 L -0.441,-0.088 L -0.435,-0.116 L -0.426,-0.145 L -0.416,-0.172 L -0.404,-0.199 L -0.390,-0.225 L -0.374,-0.250 L -0.357,-0.274 L -0.338,-0.297 L -0.318,-0.318 L -0.297,-0.338 L -0.274,-0.357 L -0.250,-0.374 L -0.225,-0.390 L -0.199,-0.404 L -0.172,-0.416 L -0.145,-0.426 L -0.116,-0.435 L -0.088,-0.441 L -0.059,-0.446 L -0.029,-0.449 L -0.000,-0.450 L 0.029,-0.449 L 0.059,-0.446 L 0.088,-0.441 L 0.116,-0.435 L 0.145,-0.426 L 0.172,-0.416 L 0.199,-0.404 L 0.225,-0.390 L 0.250,-0.374 L 0.274,-0.357 L 0.297,-0.338 L 0.318,-0.318 L 0.338,-0.297 L 0.357,-0.274 L 0.374,-0.250 L 0.390,-0.225 L 0.404,-0.199 L 0.416,-0.172 L 0.426,-0.145 L 0.435,-0.116 L 0.441,-0.088 L 0.446,-0.059 L 0.449,-0.029 L 0.450,-0.000 Z" fill="none" stroke="red" stroke-width="0.25"/>
    </g>
    <g transform="translate(4.500,0)">
        <path d="M 5.000,0.000 L 4.995,0.218 L 4.981,0.436 L 4.957,0.653 L 4.924,0.868 L 4.881,1.082 L 4.830,1.294 L 4.769,1.504 L 4.698,1.710 L 4.619,1.913 L 4.532,2.113 L 4.435,2.309 L 4.330,2.500 L 4.217,2.686 L 4.096,2.868 L 3.967,3.044 L 3.830,3.214 L 3.686,3.378 L 3.536,3.536 L 3.378,3.686 L 3.214,3.830 L 3.044,3.967 L 2.868,4.096 L 2.686,4.217 L 2.500,4.330 L 2.309,4.435 L 2.113,4.532 L 1.913,4.619 L 1.710,4.698 L 1.504,4.769 L 1.294,4.830 L 1.082,4.881 L 0.868,4.924 L 0.653,4.957 L 0.436,4.981 L 0.218,4.995 L 0.000,5.000 L -0.218,4.995 L -0.436,4.981 L -0.653,4.957 L -0.868,4.924 L -1.082,4.881 L -1.294,4.830 L -1.504,4.769 L -1.710,4.698 L -1.913,4.619 L -2.113,4.532 L -2.309,4.435 L -2.500,4.330 L -2.686,4.217 L -2.868,4.096 L -3.044,3.967 L -3.214,3.830 L -3.378,3.686 L -3.536,3.536 L -3.686,3.378 L -3.830,3.214 L -3.967,3.044 L -4.096,2.868 L -4.217,2.686 L -4.330,2.500 L -4.435,2.309 L -4.532,2.113 L -4.619,1.913 L -4.698,1.710 L -4.769,1.504 L -4.830,1.294 L -4.881,1.082 L -4.924,0.868 L -4.957,0.653 L -4.981,0.436 L -4.995,0.218 L -5.000,0.000 L -4.995,-0.218 L -4.981,-0.436 L -4.957,-0.653 L -4.924,-0.868 L -4.881,-1.082 L -4.830,-1.294 L -4.769,-1.504 L -4.698,-1.710 L -4.619,-1.913 L -4.532,-2.113 L -4.435,-2.309 L -4.330,-2.500 L -4.217,-2.686 L -4.096,-2.868 L -3.967,-3.044 L -3.830,-3.214 L -3.686,-3.378 L -3.536,-3.536 L -3.378,-3.686 L -3.214,-3.830 L -3.044,-3.967 L -2.868,-4.096 L -2.686,-4.217 L -2.500,-4.330 L -2.309,-4.435 L -2.113,-4.532 L -1.913,-4.619 L -1.710,-4.698 L -1.504,-4.769 L -1.294,-4.830 L -1.082,-4.881 L -0.868,-4.924 L -0.653,-4.957 L -0.436,-4.981 L -0.218,-4.995 L -0.000,-5.000 L 0.218,-4.995 L 0.436,-4.981 L 0.653,-4.957 L 0.868,-4.924 L 1.082,-4.881 L 1.294,-4.830 L 1.504,-4.769 L 1.710,-4.698 L 1.913,-4.619 L 2.113,-4.532 L 2.309,-4.435 L 2.500,-4.330 L 2.686,-4.217 L 2.868,-4.096 L 3.044,-3.967 L 3.214,-3.830 L 3.378,-3.686 L 3.536,-3.536 L 3.686,-3.378 L 3.830,-3.214 L 3.967,-3.044 L 4.096,-2.868 L 4.217,-2.686 L 4.330,-2.500 L 4.435,-2.309 L 4.532,-2.113 L 4.619,-1.913 L 4.698,-1.710 L 4.769,-1.504 L 4.830,-1.294 L 4.881,-1.082 L 4.924,-0.868 L 4.957,-0.653 L 4.981,-0.436 L 4.995,-0.218 L 5.000,-0.000 Z" fill="none" stroke="black" stroke-width="0.25"/>
        <path d="M 0.450,0.000 L 0.449,0.029 L 0.446,0.059 L 0.441,0.088 L 0.435,0.116 L 0.426,0.145 L 0.416,0.172 L 0.404,0.199 L 0.390,0.225 L 0.374,0.250 L 0.357,0.274 L 0.338,0.297 L 0.318,0.318 L 0.297,0.338 L 0.274,0.357 L 0.250,0.374 L 0.225,0.390 L 0.199,0.404 L 0.172,0.416 L 0.145,0.426 L 0.116,0.435 L 0.088,0.441 L 0.059,0.446 L 0.029,0.449 L 0.000,0.450 L -0.029,0.449 L -0.059,0.446 L -0.088,0.441 L -0.116,0.435 L -0.145,0.426 L -0.172,0.416 L -0.199,0.404 L -0.225,0.390 L -0.250,0.374 L -0.274,0.357 L -0.297,0.338 L -0.318,0.318 L -0.338,0.297 L -0.357,0.274 L -0.374,0.250 L -0.390,0.225 L -0.404,0.199 L -0.416,0.172 L -0.426,0.145 L -0.435,0.116 L -0.441,0.088 L -0.446,0.059 L -0.449,0.029 L -0.450,0.000 L -0.449,-0.029 L -0.446,-0.059 L -0.441,-0.088 L -0.435,-0.116 L -0.426,-0.145 L -0.416,-0.172 L -0.404,-0.199 L -0.390,-0.225 L -0.374,-0.250 L -0.357,-0.274 L -0.338,-0.297 L -0.318,-0.318 L -0.297,-0.338 L -0.274,-0.357 L -0.250,-0.374 L -0.225,-0.390 L -0.199,-0.404 L -0.172,-0.416 L -0.145,-0.426 L -0.116,-0.435 L -0.088,-0.441 L -0.059,-0.446 L -0.029,-0.449 L -0.000,-0.450 L 0.029,-0.449 L 0.059,-0.446 L 0.088,-0.441 L 0.116,-0.435 L 0.145,-0.426 L 0.172,-0.416 L 0.199,-0.404 L 0.225,-0.390 L 0.250,-0.374 L 0.274,-0.357 L 0.297,-0.338 L 0.318,-0.318 L 0.338,-0.297 L 0.357,-0.274 L 0.374,-0.250 L 0.390,-0.225 L 0.404,-0.199 L 0.416,-0.172 L 0.426,-0.145 L 0.435,-0.116 L 0.441,-0.088 L 0.446,-0.059 L 0.449,-0.029 L 0.450,-0.000 Z" fill="none" stroke="red" stroke-width="0.25"/>
    </g>
</svg>
