<svg xmlns="http://www.w3.org/2000/svg" viewBox="-31.0 -17.0 62.0 34.0">
    <path d="M 12.000,0.600 L 11.988,0.783 L 11.952,0.962 L 11.893,1.136 L 11.812,1.300 L 11.711,1.452 L 11.590,1.590 L 11.452,1.711 L 11.300,1.812 L 11.136,1.893 L 10.962,1.952 L 10.783,1.988 L 10.600,2.000 L -10.600,2.000 L -10.783,1.988 L -10.962,1.952 L -11.136,1.893 L -11.300,1.812 L -11.452,1.711 L -11.590,1.590 L -11.711,1.452 L -11.812,1.300 L -11.893,1.136 L -11.952,0.962 L -11.988,0.783 L -12.000,0.600 L -12.000,-0.600 L -11.988,-0.783 L -11.952,-0.962 L -11.893,-1.136 L -11.812,-1.300 L -11.711,-1.452 L -11.590,-1.590 L -11.452,-1.711 L -11.300,-1.812 L -11.136,-1.893 L -10.962,-1.952 L -10.783,-1.988 L -10.600,-2.000 L 10.600,-2.000 L 10.783,-1.988 L 10.962,-1.952 L 11.136,-1.893 L 11.300,-1.812 L 11.452,-1.711 L 11.590,-1.590 L 11.711,-1.452 L 11.812,-1.300 L 11.893,-1.136 L 11.952,-0.962 L 11.988,-0.783 L 12.000,-0.600 Z" fill="none" stroke="black" stroke-width="0.25"/>
    <g transform="translate(20.400,0)">
        <path d="M 7.000,0.000 L 6.996,0.244 L 6.983,0.488 L 6.962,0.732 L 6.932,0.974 L 6.894,1.216 L 6.847,1.455 L 6.792,1.693 L 6.729,1.929 L 6.657,2.163 L 6.578,2.394 L 6.490,2.622 L 6.395,2.847 L 6.292,3.069 L 6.181,3.286 L 6.062,3.500 L 5.936,3.709 L 5.803,3.914 L 5.663,4.114 L 5.516,4.310 L 5.362,4.500 L 5.202,4.684 L 5.035,4.863 L 4.863,5.035 L 4.684,5.202 L 4.500,5.362 L 4.310,5.516 L 4.114,5.663 L 3.914,5.803 L 3.709,5.936 L 3.500,6.062 L 3.286,6.181 L 3.069,6.292 L 2.847,6.395 L 2.622,6.490 L 2.394,6.578 L 2.163,6.657 L 1.929,6.729 L 1.693,6.792 L 1.455,6.847 L 1.216,6.894 L 0.974,6.932 L 0.732,6.962 L 0.488,6.983 L 0.244,6.996 L 0.000,7.000 L -0.244,6.996 L -0.488,6.983 L -0.732,6.962 L -0.974,6.932 L -1.216,6.894 L -1.455,6.847 L -1.693,6.792 L -1.929,6.729 L -2.163,6.657 L -2.394,6.578 L -2.622,6.490 L -2.847,6.395 L -3.069,6.292 L -3.286,6.181 L -3.500,6.062 L -3.709,5.936 L -3.914,5.803 L -4.114,5.663 L -4.310,5.516 L -4.500,5.362 L -4.684,5.202 L -4.863,5.035 L -5.035,4.863 L -5.202,4.684 L -5.362,4.500 L -5.516,4.310 L -5.663,4.114 L -5.803,3.914 L -5.936,3.709 L -6.062,3.500 L -6.181,3.286 L -6.292,3.069 L -6.395,2.847 L -6.490,2.622 L -6.578,2.394 L -6.657,2.163 L -6.729,1.929 L -6.792,1.693 L -6.847,1.455 L -6.894,1.216 L -6.932,0.974 L -6.962,0.732 L -6.983,0.488 L -6.996,0.244 L -7.000,0.000 L -6.996,-0.244 L -6.983,-0.488 L -6.962,-0.732 L -6.932,-0.974 L -6.894,-1.216 L -6.847,-1.455 L -6.792,-1.693 L -6.729,-1.929 L -6.657,-2.163 L -6.578,-2.394 L -6.490,-2.622 L -6.395,-2.847 L -6.292,-3.069 L -6.181,-3.286 L -6.062,-3.500 L -5.936,-3.709 L -5.803,-3.914 L -5.663,-4.114 L -5.516,-4.310 L -5.362,-4.500 L -5.202,-4.684 L -5.035,-4.863 L -4.863,-5.035 L -4.684,-5.202 L -4.500,-5.362 L -4.310,-5.516 L -4.114,-5.663 L -3.914,-5.803 L -3.709,-5.936 L -3.500,-6.062 L -3.286,-6.181 L -3.069,-6.292 L -2.847,-6.395 L -2.622,-6.490 L -2.394,-6.578 L -2.163,-6.657 L -1.929,-6.729 L -1.693,-6.792 L -1.455,-6.847 L -1.216,-6.894 L -0.974,-6.932 L -0.732,-6.962 L -0.488,-6.983 L -0.244,-6.996 L -0.000,-7.000 L 0.244,-6.996 L 0.488,-6.983 L 0.732,-6.962 L 0.974,-6.932 L 1.216,-6.894 L 1.455,-6.847 L 1.693,-6.792 L 1.929,-6.729 L 2.163,-6.657 L 2.394,-6.578 L 2.622,-6.490 L 2.847,-6.395 L 3.069,-6.292 L 3.286,-6.181 L 3.500,-6.062 L 3.709,-5.936 L 3.914,-5.803 L 4.114,-5.663 L 4.310,-5.516 L 4.500,-5.362 L 4.684,-5.202 L 4.863,-5.035 L 5.035,-4.863 L 5.202,-4.684 L 5.362,-4.500 L 5.516,-4.310 L 5.663,-4.114 L 5.803,-3.914 L 5.936,-3.709 L 6.062,-3.500 L 6.181,-3.286 L 6.292,-3.069 L 6.395,-2.847 L 6.490,-2.622 L 6.578,-2.394 L 6.657,-2.163 L 6.729,-1.929 L 6.792,-1.693 L 6.847,-1.455 L 6.894,-1.216 L 6.932,-0.974 L 6.962,-0.732 L 6.983,-0.488 L 6.996,-0.244 L 7.000,-0.000 Z" fill="none" stroke="darkslateblue" stroke-width="0.25"/>
        <path d="M 4.500,0.000 L 4.497,0.157 L 4.489,0.314 L 4.475,0.470 L 4.456,0.626 L 4.432,0.781 L 4.402,0.936 L 4.366,1.089 L 4.326,1.240 L 4.280,1.391 L 4.229,1.539 L 4.172,1.686 L 4.111,1.830 L 4.045,1.973 L 3.973,2.113 L 3.897,2.250 L 3.816,2.385 L 3.731,2.516 L 3.641,2.645 L 3.546,2.770 L 3.447,2.893 L 3.344,3.011 L 3.237,3.126 L 3.126,3.237 L 3.011,3.344 L 2.893,3.447 L 2.770,3.546 L 2.645,3.641 L 2.516,3.731 L 2.385,3.816 L 2.250,3.897 L 2.113,3.973 L 1.973,4.045 L 1.830,4.111 L 1.686,4.172 L 1.539,4.229 L 1.391,4.280 L 1.240,4.326 L 1.089,4.366 L 0.936,4.402 L 0.781,4.432 L 0.626,4.456 L 0.470,4.475 L 0.314,4.489 L 0.157,4.497 L 0.000,4.500 L -0.157,4.497 L -0.314,4.489 L -0.470,4.475 L -0.626,4.456 L -0.781,4.432 L -0.936,4.402 L -1.089,4.366 L -1.240,4.326 L -1.391,4.280 L -1.539,4.229 L -1.686,4.172 L -1.830,4.111 L -1.973,4.045 L -2.113,3.973 L -2.250,3.897 L -2.385,3.816 L -2.516,3.731 L -2.645,3.641 L -2.770,3.546 L -2.893,3.447 L -3.011,3.344 L -3.126,3.237 L -3.237,3.126 L -3.344,3.011 L -3.447,2.893 L -3.546,2.770 L -3.641,2.645 L -3.731,2.516 L -3.816,2.385 L -3.897,2.250 L -3.973,2.113 L -4.045,1.973 L -4.111,1.830 L -4.172,1.686 L -4.229,1.539 L -4.280,1.391 L -4.326,1.240 L -4.366,1.089 L -4.402,0.936 L -4.432,0.781 L -4.456,0.626 L -4.475,0.470 L -4.489,0.314 L -4.497,0.157 L -4.500,0.000 L -4.497,-0.157 L -4.489,-0.314 L -4.475,-0.470 L -4.456,-0.626 L -4.432,-0.781 L -4.402,-0.936 L -4.366,-1.089 L -4.326,-1.240 L -4.280,-1.391 L -4.229,-1.539 L -4.172,-1.686 L -4.111,-1.830 L -4.045,-1.973 L -3.973,-2.113 L -3.897,-2.250 L -3.816,-2.385 L -3.731,-2.516 L -3.641,-2.645 L -3.546,-2.770 L -3.447,-2.893 L -3.344,-3.011 L -3.237,-3.126 L -3.126,-3.237 L -3.011,-3.344 L -2.893,-3.447 L -2.770,-3.546 L -2.645,-3.641 L -2.516,-3.731 L -2.385,-3.816 L -2.250,-3.897 L -2.113,-3.973 L -1.973,-4.045 L -1.830,-4.111 L -1.686,-4.172 L -1.539,-4.229 L -1.391,-4.280 L -1.240,-4.326 L -1.089,-4.366 L -0.936,-4.402 L -0.781,-4.432 L -0.626,-4.456 L -0.470,-4.475 L -0.314,-4.489 L -0.157,-4.497 L -0.000,-4.500 L 0.157,-4.497 L 0.314,-4.489 L 0.470,-4.475 L 0.626,-4.456 L 0.781,-4.432 L 0.936,-4.402 L 1.089,-4.366 L 1.240,-4.326 L 1.391,-4.280 L 1.539,-4.229 L 1.686,-4.172 L 1.830,-4.111 L 1.973,-4.045 L 2.113,-3.973 L 2.250,-3.897 L 2.385,-3.816 L 2.516,-3.731 L 2.645,-3.641 L 2.770,-3.546 L 2.893,-3.447 L 3.011,-3.344 L 3.126,-3.237 L 3.237,-3.126 L 3.344,-3.011 L 3.447,-2.893 L 3.546,-2.770 L 3.641,-2.645 L 3.731,-2.516 L 3.816,-2.385 L 3.897,-2.250 L 3.973,-2.113 L 4.045,-1.973 L 4.111,-1.830 L 4.172,-1.686 L 4.229,-1.539 L 4.280,-1.391 L 4.326,-1.240 L 4.366,-1.089 L 4.402,-0.936 L 4.432,-0.781 L 4.456,-0.626 L 4.475,-0.470 L 4.489,-0.314 L 4.497,-0.157 L 4.500,-0.000 Z" fill="none" stroke="slategray" stroke-width="0.25"/>
    </g>
</svg>
