<svg xmlns="http://www.w3.org/2000/svg" viewBox="-60.0 -45.0 120.0 90.0">
  <path d="M 50.000,25.000 L 49.914,26.305 L 49.659,27.588 L 49.239,28.827 L 48.660,30.000 L 47.934,31.088 L 47.071,32.071 L 46.088,32.934 L 45.000,33.660 L 43.827,34.239 L 42.588,34.659 L 41.305,34.914 L 40.000,35.000 L -40.000,35.000 L -41.305,34.914 L -42.588,34.659 L -43.827,34.239 L -45.000,33.660 L -46.088,32.934 L -47.071,32.071 L -47.934,31.088 L -48.660,30.000 L -49.239,28.827 L -49.659,27.588 L -49.914,26.305 L -50.000,25.000 L -50.000,-25.000 L -49.914,-26.305 L -49.659,-27.588 L -49.239,-28.827 L -48.660,-30.000 L -47.934,-31.088 L -47.071,-32.071 L -46.088,-32.934 L -45.000,-33.660 L -43.827,-34.239 L -42.588,-34.659 L -41.305,-34.914 L -40.000,-35.000 L 40.000,-35.000 L 41.305,-34.914 L 42.588,-34.659 L 43.827,-34.239 L 45.000,-33.660 L 46.088,-32.934 L 47.071,-32.071 L 47.934,-31.088 L 48.660,-30.000 L 49.239,-28.827 L 49.659,-27.588 L 49.914,-26.305 L 50.000,-25.000 Z" fill="none" stroke="black" stroke-width="0.25"/>
  <path d="M 43.000,25.000 L 42.974,25.392 L 42.898,25.776 L 42.772,26.148 L 42.598,26.500 L 42.380,26.826 L 42.121,27.121 L 41.826,27.380 L 41.500,27.598 L 41.148,27.772 L 40.776,27.898 L 40.392,27.974 L 40.000,28.000 L -40.000,28.000 L -40.392,27.974 L -40.776,27.898 L -41.148,27.772 L -41.500,27.598 L -41.826,27.380 L -42.121,27.121 L -42.380,26.826 L -42.598,26.500 L -42.772,26.148 L -42.898,25.776 L -42.974,25.392 L -43.000,25.000 L -43.000,-25.000 L -42.974,-25.392 L -42.898,-25.776 L -42.772,-26.148 L -42.598,-26.500 L -42.380,-26.826 L -42.121,-27.121 L -41.826,-27.380 L -41.500,-27.598 L -41.148,-27.772 L -40.776,-27.898 L -40.392,-27.974 L -40.000,-28.000 L 40.000,-28.000 L 40.392,-27.974 L 40.776,-27.898 L 41.148,-27.772 L 41.500,-27.598 L 41.826,-27.380 L 42.121,-27.121 L 42.380,-26.826 L 42.598,-26.500 L 42.772,-26.148 L 42.898,-25.776 L 42.974,-25.392 L 43.000,-25.000 Z" fill="none" stroke="blue" stroke-width="0.25"/>
</svg>
